<?xml version="1.0" standalone="no"?>
<!DOCTYPE svg PUBLIC "-//W3C//DTD SVG 1.1//EN" "http://www.w3.org/Graphics/SVG/1.1/DTD/svg11.dtd" >
<svg>
<metadata>
Created by FontForge 20090914 at Sat Jun  6 01:45:43 2015
 By www-data
Created by Sauter,U-TOWN_HALL\Sauter,S-1-5-21-2526881554-1349 with FontForge 1.0 (http://fontforge.sf.net)
</metadata>
<defs>
<font id="OCRA" horiz-adv-x="715" >
  <font-face 
    font-family="OCRA"
    font-weight="500"
    font-stretch="normal"
    units-per-em="1000"
    panose-1="2 0 6 9 0 0 0 0 0 0"
    ascent="800"
    descent="-200"
    x-height="538"
    cap-height="740"
    bbox="83 -201.002 602 1048"
    underline-thickness="50"
    underline-position="-75"
    unicode-range="U+0020-U+2442"
  />
<missing-glyph 
 />
    <glyph glyph-name=".notdef" 
 />
    <glyph glyph-name="space" unicode=" " 
 />
    <glyph glyph-name="exclam" unicode="!" 
d="M310 135l33.999 1.00195c22 0 36.333 -1.66699 43 -5c10 -4.66699 17.333 -12 22 -22c3.33301 -6.66699 5 -20.334 5 -41.001s-1.66699 -34.334 -5 -41.001c-4.66699 -10 -12 -17.333 -22 -22c-6.66699 -3.33301 -20.667 -5 -42 -5l-38 2
c-1.33301 0 -2.66602 0.333008 -3.99902 1c-6 2 -11.667 5.66699 -17 11c-6 6 -10 11.667 -12 17c-2 6 -3 18.333 -3 37s1 31 3 37s6 11.667 12 17c6.66699 6.66699 14.667 11 24 13zM311.999 739.002l31.998 0.00195312c22 0 36.333 -1.33301 43 -4
c10 -4.66699 17.333 -12 22 -22c2.66699 -6 4.33398 -12 5.00098 -18l-12 -187c-8 -120.667 -12 -182 -12 -184c-1.33301 -11.333 -6.33301 -21 -15 -29c-5.33301 -4.66699 -11.333 -8.33398 -18 -11.001l-15 -2c-6 0 -10.667 0.666992 -14 2
c-19.333 6.66699 -30.333 20 -33 40l-24 371c0.666992 6 2.33398 12 5.00098 18c3.33301 6.66699 7.66602 12 12.999 16c6.66699 5.33301 14.334 8.66602 23.001 9.99902z" />
    <glyph glyph-name="quotedbl" unicode="&#x22;" 
d="M107 713l0.000976562 27h236h236v-35v-34l-3 -13l-2 -14h-2h-2l-19 -100l-21 -105c-4 -17.333 -15.667 -29 -35 -35h-22h-1c-18 4.66699 -29.333 16 -34 34c-0.666992 2 -7.66699 36.667 -21 104l-20 102h-55h-54l-20 -102c-13.333 -67.333 -20.333 -102 -21 -104
c-4.66699 -17.333 -16 -28.666 -34 -33.999c-2.66699 -0.666992 -6.33398 -1 -11.001 -1c-6.66699 0 -12.667 1 -18 3c-14 5.33301 -23.333 14.666 -28 27.999l-19 98l-24 123l-6 31v27z" />
    <glyph glyph-name="numbersign" unicode="#" 
d="M240 739l20.999 -0.996094l9 -3c9.33301 -4.66699 16.333 -12 21 -22c3.33301 -6.66699 5 -20.667 5 -42v-31v-61h47h46v58c0 42 1 66 3 72c2 5.33301 5.66699 10.666 11 15.999c5.33301 6 11 10 17 12c8.66699 2.66699 17 3.33398 25 2.00098
c4 -0.666992 8.33301 -2 13 -4c9.33301 -4.66699 16.333 -12 21 -22c3.33301 -6.66699 5 -20.667 5 -42v-31v-61h26c16.667 0 26.334 -0.333008 29.001 -1c20.667 -4 33.334 -16 38.001 -36c0.666992 -3.33301 1 -7 1 -11c0 -20.667 -9.33301 -35.334 -28 -44.001
c-3.33301 -1.33301 -7 -2.33301 -11 -3c-2.66699 -0.666992 -12.334 -1 -29.001 -1h-26v-53v-52h26c16.667 0 26.334 -0.333008 29.001 -1c20.667 -4 33.334 -16 38.001 -36c0.666992 -3.33301 1 -7 1 -11c0 -20.667 -9.33301 -35.334 -28 -44.001
c-3.33301 -1.33301 -7 -2.33301 -11 -3c-2.66699 -0.666992 -12.334 -1 -29.001 -1h-26v-59c0 -38.667 -0.333008 -59.667 -1 -63c-3.33301 -20 -15 -32.667 -35 -38c-4 -0.666992 -8 -1 -12 -1c-20 0 -34.333 9.33301 -43 28c-1.33301 3.33301 -2.66602 7 -3.99902 11v63
v59h-47h-46v-59v-63c-4 -20 -16 -32.667 -36 -38c-4 -0.666992 -8 -1 -12 -1c-20.667 0 -35.334 9.66699 -44.001 29c-1.33301 3.33301 -2.33301 6.66602 -3 9.99902v63v59h-28c-18 0 -28.333 0.666992 -31 2c-22 6.66699 -33.667 22 -35 46c0 22 11.667 37.333 35 46
c2.66699 0.666992 13 1.33398 31 2.00098h28v52v53h-28c-18 0 -28.333 0.666992 -31 2c-22 9.33301 -33.667 24.666 -35 45.999c0 22.667 11.667 38 35 46c2.66699 1.33301 13 2 31 2h28v58c0 42 1 66 3 72c2 5.33301 5.66699 10.666 11 15.999
c7.33301 7.33301 15.666 12 24.999 14zM388.999 430.004v53h-47h-46v-53v-52h46h47v52z" />
    <glyph glyph-name="dollar" unicode="$" 
d="M334 739l21.001 -0.99707l9 -3c9.33301 -4.66699 16.333 -12 21 -22c3.33301 -6.66699 5 -20.667 5 -42v-31v-61h73c48 0 73.333 -0.333008 76 -1c20.667 -4 33.334 -16 38.001 -36c0.666992 -3.33301 1 -7 1 -11c0 -20.667 -9.33301 -35.334 -28 -44.001
c-3.33301 -1.33301 -7 -2.33301 -11 -3c-2.66699 -0.666992 -59.334 -1 -170.001 -1h-167v-32v-33h169c112 0 169.333 -0.333008 172 -1c7.33301 -2.66699 13.333 -6 18 -10c5.33301 -4 9.66602 -9.33301 12.999 -16c2.66699 -6 4.33398 -20.333 5.00098 -43v-59
c0 -61.333 -1.66699 -95 -5 -101c-4.66699 -10 -12 -17.333 -22 -22c-6.66699 -3.33301 -20.667 -5 -42 -5h-45h-75v-61c0 -42.667 -1.66699 -67 -5 -73c-4.66699 -10 -11.667 -17.333 -21 -22c-9.33301 -4 -18.333 -5.66699 -27 -5c-3.33301 0.666992 -7 1.66699 -11 3
c-6 2 -11.667 5.66699 -17 11c-5.33301 6 -9 11.667 -11 17c-2 6 -3 29.667 -3 71v59h-75h-74l-4 1c-22 7.33301 -33.667 23 -35 47c0 22.667 11.667 38 35 46l4 1h169l168 1v32v33h-166c-114 0 -173.667 1 -179 3c-6 2.66699 -11.667 6.66699 -17 12
c-7.33301 7.33301 -12 15.666 -14 24.999v177c2 10 6.66699 18.333 14 25c5.33301 6 11 10 17 12s34.333 3 85 3h72v58c0 42 1 66 3 72c2 5.33301 5.66699 10.666 11 15.999c7.33301 7.33301 15.666 12 24.999 14z" />
    <glyph glyph-name="percent" unicode="%" 
d="M428 176l58.001 -0.000976562c37.333 0 59.333 -1.66699 66 -5c10 -4.66699 17.333 -11.667 22 -21c3.33301 -6.66699 5 -21 5 -43c0 0.666992 0 -5.66602 0 -18.999c0 -34 -1.66699 -54.333 -5 -61c-4.66699 -10 -12 -17.333 -22 -22
c-6.66699 -3.33301 -20.667 -5 -42 -5h-23c-38 0 -60.333 1 -67 3c-6 2 -11.667 5.66699 -17 11c-5.33301 6 -9 11.667 -11 17c-2 6 -3 25 -3 57c0 32.667 1 51.667 3 57c2 6 5.66699 11.667 11 17c7.33301 7.33301 15.666 12 24.999 14zM522.001 657.999
c1.33301 0.666992 4.33203 0.995117 8.99902 0.995117l17 -3l4 -2c4 -2 8 -5 12 -9s7 -8 9 -12c3.33301 -7.33301 5 -14.666 5 -21.999l-3 -18c-0.666992 -2 -2 -4.33301 -4 -7c-1.33301 -2 -64.666 -83.667 -189.999 -245c-125.333 -160.667 -190 -243 -194 -247
c-4 -3.33301 -7.66699 -6 -11 -8c-7.33301 -3.33301 -15.333 -5 -24 -5c-12 0.666992 -22.333 5.33398 -31 14.001c-4 4 -7 8 -9 12c-4 7.33301 -5.66699 15 -5 23c0 8.66699 2 16 6 22c1.33301 2.66699 64.666 84.334 189.999 245.001s190 243.334 194 248.001
c4 4 7.66699 6.66699 11 8c4.66699 2.66699 9.33398 4.33398 14.001 5.00098zM146 738.994l57.002 1.00488c38 -0.666992 60.333 -2.33398 67 -5.00098c9.33301 -4.66699 16.333 -12 21 -22c3.33301 -6.66699 5 -21 5 -43c0 0.666992 0 -5.33301 0 -18
c0 -34.667 -1.66699 -55.334 -5 -62.001c-4.66699 -10 -11.667 -17.333 -21 -22c-6.66699 -2.66699 -20.334 -4.33398 -41.001 -5.00098h-24c-38 0 -60.333 1 -67 3c-6 2 -11.667 6 -17 12c-7.33301 7.33301 -12 15.666 -14 24.999v97c2 9.33301 6.66699 17.666 14 24.999
s15.666 12 24.999 14z" />
    <glyph glyph-name="ampersand" unicode="&#x26;" 
d="M232 658c5.33301 0.666992 26.335 0.999023 63.002 0.999023l64 -1c15.333 -2 30.333 -6.66699 45 -14c29.333 -14 51.333 -35.667 66 -65c7.33301 -15.333 11.666 -31.333 12.999 -48l1 -49v-41l-1 -4c-2.66699 -6.66699 -5.66699 -12.334 -9 -17.001
c-2 -2 -23 -20 -63 -54c-40 -34.667 -60.333 -52.334 -61 -53.001s7.33301 -10 24 -28l25 -27c34 -36 51.333 -54 52 -54l25 21c19.333 16.667 31.666 26 36.999 28c6.66699 2.66699 14 3.66699 22 3h5c19.333 -4 31.666 -15.667 36.999 -35c0.666992 -4 1 -8 1 -12
c0 -11.333 -3.33301 -21.333 -10 -30c-2 -2.66699 -11.333 -11 -28 -25l-24 -20l2 -2c1.33301 -1.33301 10 -10.666 26 -27.999s24.667 -26.666 26 -27.999c8.66699 -12.667 10.667 -26.667 6 -42c-2 -8 -6.33301 -15 -13 -21c-11.333 -10.667 -25 -14.667 -41 -12l-12 4
c-5.33301 2.66699 -18.333 14.667 -39 36c-18 20 -27.333 30 -28 30l-35 -30c-22.667 -19.333 -35 -30 -37 -32c-4.66699 -3.33301 -10 -6 -16 -8c-2.66699 -0.666992 -22 -1 -58 -1l-62 1c-47.333 5.33301 -83.333 28.333 -108 69c-10.667 18 -17 37.333 -19 58
c-0.666992 5.33301 -1 21.333 -1 48c0 26 0.333008 40.667 1 44c2 8.66699 6.33301 16.334 13 23.001c2.66699 2.66699 18.334 16 47.001 40l42 37l-46 50c-30.667 32.667 -46.667 50 -48 52c-4 4.66699 -6.66699 10.334 -8 17.001c-0.666992 3.33301 -1 18.333 -1 45
c0 32.667 1.33301 54.667 4 66c8.66699 36 28.667 64.667 60 86c18 11.333 38.333 18.666 61 21.999zM353.002 561.999c-2 0.666992 -20.668 0.999023 -56.001 0.999023h-55c-19.333 -3.33301 -32 -14.666 -38 -33.999c-0.666992 -3.33301 -1 -14 -1 -32l-1 -28l40 -43
c26.667 -28.667 40.334 -43 41.001 -43l53 44l53 45l-1 26c0 19.333 -1.66699 32.333 -5 39c-6 12.667 -16 21 -30 25zM327.001 195.998c-33.333 36 -50.333 54 -51 54l-37 -32l-37 -31l1 -26c0 -19.333 1.33301 -32 4 -38c6.66699 -12.667 16.667 -21.334 30 -26.001
c3.33301 -0.666992 18.666 -1 45.999 -1h42l25 21c16.667 14.667 25.334 22.334 26.001 23.001l2 1z" />
    <glyph glyph-name="quotesingle" unicode="'" 
d="M287 739l56.999 1.00098c38 -0.666992 60.333 -2.33398 67 -5.00098c9.33301 -4.66699 16.333 -12 21 -22c2 -3.33301 3.33301 -6.33301 4 -9l1 -19l-98 -334c-4 -10.667 -11.667 -18.667 -23 -24c-8 -4 -16.667 -5.33301 -26 -4l-14 3c-13.333 6 -22.333 16.333 -27 31
l-1 5v166v171c1.33301 6 3.33301 11.667 6 17c4.66699 7.33301 10.334 13 17.001 17c4.66699 2.66699 10 4.66699 16 6z" />
    <glyph glyph-name="parenleft" unicode="(" 
d="M428 739l19.999 -1h1c16.667 -4.66699 27.667 -15 33 -31l2 -15c0 -6 -0.666992 -11 -2 -15s-3 -7.33301 -5 -10c-2 -3.33301 -21.667 -29 -59 -77l-59 -76c-7.33301 -10.667 -12 -22.667 -14 -36c-0.666992 -4 -1 -40 -1 -108s0.333008 -104 1 -108
c2 -13.333 6.66699 -25.333 14 -36c2 -3.33301 21.667 -29 59 -77l59 -76c2 -2.66699 3.66699 -6 5 -10s2 -9 2 -15l-2 -15c-7.33301 -20.667 -21.666 -31.667 -42.999 -33c-8.66699 -0.666992 -17 1.33301 -25 6l-12 9l-119 153c-18 24.667 -29.333 53 -34 85l-1 9v108v107
l1 10c4.66699 32 16 60.333 34 85l119 153c7.33301 7.33301 16 12 26 14z" />
    <glyph glyph-name="parenright" unicode=")" 
d="M242 739c6.66699 1.33301 13.333 0.666016 20 -2.00098c4 -0.666992 7.66699 -2 11 -4c5.33301 -3.33301 28.666 -31.666 69.999 -84.999c38 -48 58 -73.667 60 -77c17.333 -24.667 28.333 -52.667 33 -84l1 -10v-107v-108l-1 -9
c-4.66699 -31.333 -15.667 -59.333 -33 -84c-2 -3.33301 -22 -29.333 -60 -78c-41.333 -52.667 -64.666 -80.667 -69.999 -84c-8 -4.66699 -17.333 -7 -28 -7c-6 0.666992 -12 2.33398 -18 5.00098c-12 6 -20.333 16 -25 30c-0.666992 2.66699 -1 7 -1 13
c0 5.33301 0.333008 9.66602 1 12.999c2 6 12 20.667 30 44l58 74c22.667 29.333 34.667 45 36 47c7.33301 10.667 12 22.667 14 36c0.666992 4 1 40 1 108s-0.333008 104 -1 108c-2 13.333 -6.66699 25 -14 35c-1.33301 2.66699 -13.333 18.667 -36 48l-58 74
c-18 22.667 -28 37.334 -30 44.001c-0.666992 2.66699 -1 7 -1 13c0 5.33301 0.333008 9.66602 1 12.999c2 6 5 11.667 9 17c8 10 18.333 15.667 31 17z" />
    <glyph glyph-name="asterisk" unicode="*" 
d="M331 658l12.998 0.996094c7.33301 -0.666992 14 -2.33398 20 -5.00098c12 -6 20.333 -16 25 -30l1 -4v-73l1 -73l55 47c37.333 32 56.666 48.333 57.999 49c8.66699 6.66699 19.667 9.33398 33 8.00098c20.667 -2.66699 34 -14 40 -34l1 -13l-3 -18l-2 -4
c-2 -3.33301 -4.66699 -7 -8 -11c-4 -4 -29.667 -26.333 -77 -67l-71 -61c0 -0.666992 23.667 -21.334 71 -62.001c47.333 -40 73 -62 77 -66c3.33301 -4 6 -7.66699 8 -11c3.33301 -7.33301 5 -14.666 5 -21.999s-1.66699 -14.333 -5 -21
c-7.33301 -15.333 -19.333 -24.333 -36 -27c-7.33301 -0.666992 -14.666 0.333008 -21.999 3c-4 1.33301 -7.66699 3 -11 5c-1.33301 1.33301 -20.666 17.666 -57.999 48.999l-55 48l-1 -73v-73l-1 -4c-4.66699 -14 -13 -24 -25 -30c-6 -3.33301 -12.667 -5 -20 -5l-12 1
c-18 4 -30 15.333 -36 34l-1 4v73l-1 73l-56 -48c-37.333 -32 -57 -48.667 -59 -50c-7.33301 -4.66699 -15.666 -7 -24.999 -7c-4.66699 0 -9 0.666992 -13 2c-10 3.33301 -18.333 9 -25 17c-6 8.66699 -9 18.334 -9 29.001c0 13.333 5 24.666 15 33.999
c2.66699 2.66699 27.667 24.334 75 65.001s71 61.334 71 62.001l-71 61c-47.333 40.667 -72.333 62.334 -75 65.001c-10 10 -15 21.667 -15 35c0 10.667 3 20.334 9 29.001c6.66699 8 15 13.667 25 17c4 0.666992 8.33301 1.33398 13 2.00098l19 -4
c2 -0.666992 4 -1.66699 6 -3s21.667 -18 59 -50l56 -48l1 73v73l1 4c6 18 17.667 29.333 35 34z" />
    <glyph glyph-name="plus" unicode="+" 
d="M334 605l21 0.000976562c2 -0.666992 5 -2 9 -4c9.33301 -4.66699 16.333 -12 21 -22c3.33301 -6 5 -20 5 -42v-45v-74h73c48 0 73.333 -0.333008 76 -1c20.667 -4 33.334 -15.667 38.001 -35c0.666992 -4 1 -8 1 -12c0 -20.667 -9.33301 -35 -28 -43
c-3.33301 -2 -7 -3.33301 -11 -4c-2.66699 -0.666992 -28 -1 -76 -1h-73v-74c0 -52 -1.66699 -81 -5 -87c-4.66699 -10 -11.667 -17.333 -21 -22s-18.333 -6.33398 -27 -5.00098c-3.33301 0.666992 -7 1.66699 -11 3c-6 2 -11.667 5.66699 -17 11s-9 11 -11 17
s-3 34.333 -3 85v72h-75l-74 1l-4 1c-22 6.66699 -33.667 22 -35 46c0 22.667 11.667 38 35 46l4 2h74h75v72c0 50.667 1 79 3 85c2 5.33301 5.66699 11 11 17c7.33301 6.66699 15.666 11 24.999 13z" />
    <glyph glyph-name="comma" unicode="," 
d="M242 337l102 -0.000976562c69.333 0 107.333 -1.66699 114 -5c9.33301 -4.66699 16.333 -11.667 21 -21c3.33301 -6.66699 5 -21 5 -43v-99c0 -88.667 -1.66699 -136 -5 -142c-4.66699 -10 -11.667 -17.333 -21 -22c-9.33301 -4 -18.333 -5.66699 -27 -5
c-3.33301 0.666992 -7 1.66699 -11 3c-6 2 -11.667 5.66699 -17 11c-5.33301 6 -9 11.667 -11 17c-2 6 -3 43.333 -3 112v99h-75c-51.333 0 -80.333 1.66699 -87 5c-12 6 -20.333 16 -25 30l-1 20c0.666992 2 1 3.66699 1 5c2 6.66699 5 12.334 9 17.001
c8 10 18.333 16 31 18z" />
    <glyph glyph-name="hyphen" unicode="-" 
d="M146 417l199.003 1.00195c129.333 0 195.333 -0.333008 198 -1c7.33301 -2.66699 13.333 -6 18 -10c5.33301 -4 9.66602 -9.33301 12.999 -16s5 -20.334 5 -41.001s-1.66699 -34.334 -5 -41.001s-7.66602 -12 -12.999 -16c-4.66699 -4 -10.667 -7.33301 -18 -10
c-2.66699 -0.666992 -68.334 -1 -197.001 -1l-198 1c-6.66699 0.666992 -12.667 2.66699 -18 6c-6.66699 4 -12.334 9.66699 -17.001 17c-1.33301 2 -2.33301 4.33301 -3 7c-2 6 -3 18.333 -3 37s1 31 3 37c2 5.33301 5.66699 11 11 17c7.33301 6.66699 15.666 11 24.999 13
z" />
    <glyph glyph-name="period" unicode="." 
d="M287 296l57.001 1.00195c38 0 60.333 -1.66699 67 -5c9.33301 -4.66699 16.333 -12 21 -22c3.33301 -6.66699 5 -21 5 -43c0 0.666992 0 -5.33301 0 -18c0 -34.667 -1.66699 -55.334 -5 -62.001c-4.66699 -9.33301 -11.667 -16.333 -21 -21
c-6.66699 -3.33301 -21 -5 -43 -5h-23c-37.333 -0.666992 -59.333 0 -66 2c-6 2.66699 -11.667 6.66699 -17 12c-7.33301 7.33301 -12 15.666 -14 24.999v97c2 10 6.66699 18.667 14 26c7.33301 6.66699 15.666 11 24.999 13z" />
    <glyph glyph-name="slash" unicode="/" 
d="M523 739c6.66699 1.33301 13.6641 1 20.9971 -1c4 -1.33301 8 -3 12 -5c8 -5.33301 14 -12.333 18 -21s5.33301 -17.667 4 -27l-4 -12l-379 -649c-9.33301 -16 -23.666 -24 -42.999 -24c-21.333 1.33301 -35.666 12.333 -42.999 33
c-0.666992 1.33301 -1 2.66602 -1 3.99902c-1.33301 6 -1.66602 12.333 -0.999023 19c0.666992 4 1.66699 7.66699 3 11l380 649c7.33301 12.667 18.333 20.334 33 23.001z" />
    <glyph glyph-name="zero" unicode="0" 
d="M191 739c2.66699 0.666992 53 1 151 1c102 0 157 -1 165 -3c32.667 -8.66699 54.667 -28.667 66 -60c2.66699 -7.33301 4.33398 -15 5.00098 -23l1 -288v-283l-2 -6c-3.33301 -16 -10 -30 -20 -42c-16.667 -20 -38 -31.333 -64 -34l-154 -1h-149l-6 2
c-22.667 5.33301 -41.334 16.333 -56.001 33c-8.66699 11.333 -14.667 23.666 -18 36.999c-2 8 -3 85.667 -3 233v65c0 190.667 1 289.667 3 297c8 32.667 27.667 55 59 67c6.66699 2.66699 14 4.33398 22 5.00098zM483 370v274h-140h-141v-274v-274h141h140v274z" />
    <glyph glyph-name="one" unicode="1" 
d="M147 739c2 0.666992 43.001 0.998047 123.001 0.998047h120v-322v-322h47h46v99c0 68 1 105 3 111l4 8c4 6.66699 9.66699 12.334 17 17.001c5.33301 2.66699 11.666 4.66699 18.999 6c6.66699 0.666992 13.334 0 20.001 -2c4 -1.33301 7.66699 -3 11 -5
c6.66699 -4.66699 11.667 -10 15 -16c3.33301 -5.33301 5.33301 -11.333 6 -18l1 -130c0 -86.667 -1.66699 -133 -5 -139c-4.66699 -10 -12 -17.333 -22 -22c-3.33301 -2 -6.33301 -3.33301 -9 -4s-69.334 -1 -200.001 -1h-196l-5 2c-22 8.66699 -33.667 24 -35 46
c0 22 11.667 37.333 35 46l4 1l74 1h75v274v274h-75h-74l-4 2c-14.667 4 -25 12.667 -31 26c-4 8 -5.33301 16.667 -4 26c0.666992 4.66699 2 9.33398 4 14.001c6.66699 15.333 18.667 24.333 36 27z" />
    <glyph glyph-name="two" unicode="2" 
d="M147 739c2 0.666992 59.6641 0.999023 172.997 0.999023c116.667 0 179 -1 187 -3c32.667 -8.66699 54.667 -29 66 -61c2.66699 -6 4.33398 -12.667 5.00098 -20v-250c-3.33301 -22.667 -13 -41.667 -29 -57c-12.667 -12 -27.667 -20.333 -45 -25l-7 -1l-147 -1h-147
c-0.666992 0 -1 -37.667 -1 -113v-113h167c110.667 0 167.334 -0.333008 170.001 -1c20.667 -4 33.334 -16 38.001 -36c0.666992 -3.33301 1 -7 1 -11c0 -21.333 -9.66699 -36 -29 -44l-10 -3l-218 -1h-214v167v167l1 6c4.66699 20.667 14.334 37.667 29.001 51
c16 15.333 35.333 24 58 26c5.33301 0.666992 54.666 1 147.999 1h140v113v113h-168h-169l-4 2c-14.667 4 -25 12.667 -31 26c-4 8 -5.33301 16.667 -4 26c0.666992 4.66699 2 9.33398 4 14.001c6.66699 15.333 18.667 24.333 36 27z" />
    <glyph glyph-name="three" unicode="3" 
d="M147 739c2 0.666992 59.665 0.999023 172.998 0.999023c116.667 0 179 -1 187 -3c32.667 -8.66699 54.667 -29 66 -61c2.66699 -6 4.33398 -12.667 5.00098 -20v-205v-1c-3.33301 -27.333 -13.666 -51.666 -30.999 -72.999l-4 -6l3 -6
c10.667 -12.667 18.667 -26.667 24 -42c3.33301 -8 5.66602 -17 6.99902 -27l2 -8v-102v-102l-2 -6c-3.33301 -16.667 -10 -31 -20 -43c-16.667 -20 -38 -31.333 -64 -34l-176 -1h-171l-4 2c-22 6.66699 -33.667 22 -35 46c0 22.667 11.667 38 35 46l4 1l169 1h168v93
c0 64.667 -1.66699 100 -5 106c-4.66699 10 -12 17.333 -22 22c-6 3.33301 -22.333 5 -49 5h-65c-70 0.666992 -108.333 2.33398 -115 5.00098c-12 6 -20.333 16 -25 30c-0.666992 3.33301 -1 7.66602 -1 12.999c0 6 0.333008 10.333 1 13c4.66699 14 13 24 25 30
c6.66699 3.33301 21.334 5 44.001 5h71h102l5 2c16.667 5.33301 27.667 16.666 33 33.999c0.666992 2.66699 1 35 1 97v93h-168h-169l-4 2c-14.667 4 -25 12.667 -31 26c-4 8 -5.33301 16.667 -4 26c0.666992 4.66699 2 9.33398 4 14.001
c6.66699 15.333 18.667 24.333 36 27z" />
    <glyph glyph-name="four" unicode="4" 
d="M169 739l21.001 -0.99707c6.66699 -1.33301 12.667 -4.33301 18 -9c8 -6.66699 13.667 -15 17 -25c0.666992 -2.66699 1 -64.334 1 -185.001v-182h93h93v141v142l2 4c5.33301 18.667 17 30 35 34l13 1c6.66699 -0.666992 13 -2.33398 19 -5.00098
c12.667 -6 21 -16 25 -30l2 -4v-141v-142h4c18 -2 31 -11.333 39 -28c3.33301 -8 4.66602 -16.333 3.99902 -25l-4 -14c-8 -16.667 -21 -26 -39 -28l-4 -1v-101c-0.666992 -69.333 -2.33398 -107 -5.00098 -113c-4.66699 -10 -12 -17.333 -22 -22
c-8.66699 -4 -17.667 -5.66699 -27 -5c-3.33301 0.666992 -6.66602 1.66699 -9.99902 3c-6 2 -11.667 5.66699 -17 11c-6 6 -10 11.667 -12 17c-2 6 -3 43.333 -3 112v99h-141h-141v227c0 154.667 1 234.667 3 240s6 10.666 12 15.999c6.66699 7.33301 14.667 12 24 14z" />
    <glyph glyph-name="five" unicode="5" 
d="M201 531l-0.00390625 208.999h167c111.333 0 168.333 -0.333008 171 -1c20.667 -4 33.334 -16 38.001 -36c0.666992 -3.33301 1 -7 1 -11c0 -20.667 -9.33301 -35.334 -28 -44.001c-3.33301 -1.33301 -7 -2.33301 -11 -3c-2.66699 -0.666992 -43.667 -1 -123 -1h-120
v-113v-113h97c68 0 106 -1 114 -3c33.333 -8.66699 55.333 -29 66 -61c2.66699 -7.33301 4.33398 -14.333 5.00098 -21l1 -128v-122l-2 -6c-3.33301 -16 -10 -30 -20 -42c-13.333 -16 -30 -26.667 -50 -32c-8 -2 -52 -3 -132 -3c-76.667 0 -118.334 0.333008 -125.001 1
c-9.33301 1.33301 -18.333 3.33301 -27 6l-93 40c-8.66699 5.33301 -15 12.333 -19 21c-4 8 -5.33301 17 -4 27c0.666992 4.66699 2.33398 9.33398 5.00098 14.001c8.66699 18.667 23.334 27.667 44.001 27c4.66699 0 9 -0.666992 13 -2
c2.66699 -1.33301 17.334 -7.66602 44.001 -18.999c26 -11.333 40.333 -17.333 43 -18c2 -0.666992 40.333 -1 115 -1h112v113v113h-141h-141v209z" />
    <glyph glyph-name="six" unicode="6" 
d="M146 739l64.002 0.00195312c10 -2 18.667 -6.66699 26 -14c8.66699 -9.33301 13 -20.333 13 -33c0 -20.667 -9.66699 -35.334 -29 -44.001c-4 -2 -8 -3.33301 -12 -4h-6v-153v-154h169c112 0 169.333 -0.333008 172 -1c7.33301 -2 13.333 -5 18 -9
c5.33301 -4.66699 9.66602 -10 12.999 -16c2.66699 -6.66699 4.33398 -21 5.00098 -43v-99c0 -88.667 -1.66699 -136 -5 -142c-3.33301 -6.66699 -7.66602 -12 -12.999 -16c-4.66699 -4 -10.667 -7.33301 -18 -10c-2.66699 -0.666992 -68.334 -1 -197.001 -1l-198 1
c-6.66699 0.666992 -12.667 2.66699 -18 6c-6.66699 4 -12.334 9.66699 -17.001 17c-2.66699 4.66699 -4.66699 10 -6 16v660c2 9.33301 6.66699 17.666 14 24.999s15.666 12 24.999 14zM483.002 169.002v73h-140h-141v-73v-73h141h140v73z" />
    <glyph glyph-name="seven" unicode="7" 
d="M146 739c2.66699 0.666992 75.334 1.00195 218.001 1.00195h215v-147c0 -100.667 -1 -153.667 -3 -159c-2 -6 -5.33301 -11.333 -10 -16c-2.66699 -2.66699 -32.667 -28.334 -90 -77.001l-86 -74v-114c0 -78 -1.66699 -120 -5 -126c-4.66699 -10 -11.667 -17.333 -21 -22
c-9.33301 -4 -18.333 -5.66699 -27 -5c-3.33301 0.666992 -7 1.66699 -11 3c-6 2 -11.667 5.66699 -17 11c-5.33301 6 -9 11.667 -11 17c-2 6 -3 46.333 -3 121v17c0 86 1 131.667 3 137s5.33301 10.666 10 15.999c2.66699 2.66699 32.334 28.334 89.001 77.001l86 73v86v86
h-141h-140l-1 -2c-0.666992 -5.33301 -2.33398 -10 -5.00098 -14c-4 -7.33301 -9.33301 -13 -16 -17c-8.66699 -5.33301 -19 -7.66602 -31 -6.99902c-11.333 1.33301 -21 6.33301 -29 15c-4.66699 5.33301 -8 10.666 -10 15.999c-2 6 -3 18.333 -3 37s1 31 3 37
c2 5.33301 5.66699 10.666 11 15.999c7.33301 7.33301 15.666 12 24.999 14z" />
    <glyph glyph-name="eight" unicode="8" 
d="M240 739l104.001 1.00293c69.333 -0.666992 107.333 -2.33398 114 -5.00098c9.33301 -4.66699 16.333 -12 21 -22c3.33301 -6 5 -19.667 5 -41v-113v-141h3c5.33301 0 12 -1 20 -3c32 -8 53.667 -27.333 65 -58c2 -4.66699 3.33301 -9 4 -13c2 -8 3 -54.333 3 -139v-122
l-2 -6c-3.33301 -16 -10 -30 -20 -42c-16.667 -20 -38 -31.333 -64 -34l-154 -1h-149l-6 2c-22.667 5.33301 -41.334 16.333 -56.001 33c-8.66699 11.333 -14.667 23.666 -18 36.999c-2 8 -3 53.667 -3 137s1 129 3 137c8 32 27.667 54 59 66
c8.66699 3.33301 17.334 5.33301 26.001 6h6v139c0 95.333 1 146 3 152c2 5.33301 5.66699 10.666 11 15.999c7.33301 7.33301 15.666 12 24.999 14zM389.001 531.003v113h-47h-46v-113v-113h46h47v113zM483.001 209.003v113h-140h-141v-113v-113h141h140v113z" />
    <glyph glyph-name="nine" unicode="9" 
d="M146 739l199.001 1.00391c129.333 -0.666992 195.333 -1.33398 198 -2.00098c7.33301 -2 13.333 -5 18 -9c8 -6.66699 13.667 -15 17 -25c0.666992 -2.66699 1 -114 1 -334s-0.333008 -331.333 -1 -334c-1.33301 -2.66699 -2.66602 -5.66699 -3.99902 -9
c-4.66699 -10 -12 -17.333 -22 -22c-6.66699 -3.33301 -20.667 -5 -42 -5l-38 2c-1.33301 0 -3 0.333008 -5 1c-6 2 -11.333 5.33301 -16 10c-6 6 -10.333 13.333 -13 22c-2 7.33301 -2.33301 14.666 -1 21.999c0.666992 4.66699 2 8.66699 4 12
c7.33301 15.333 19.666 24 36.999 26l5 1v153v153h-166c-114 0 -173.667 1.33301 -179 4c-6 2 -11.667 5.66699 -17 11c-7.33301 7.33301 -12 15.666 -14 24.999v258c2 9.33301 6.66699 17.666 14 24.999s15.666 12 24.999 14zM483.001 571.004v73h-140h-141v-73v-73h141
h140v73z" />
    <glyph glyph-name="colon" unicode=":" 
d="M287 296l57.001 1.00195c38 0 60.333 -1.66699 67 -5c9.33301 -4.66699 16.333 -12 21 -22c3.33301 -6.66699 5 -21 5 -43c0 0.666992 0 -5.33301 0 -18c0 -34.667 -1.66699 -55.334 -5 -62.001c-4.66699 -9.33301 -11.667 -16.333 -21 -21
c-6.66699 -3.33301 -21 -5 -43 -5h-23c-37.333 -0.666992 -59.333 0 -66 2c-6 2.66699 -11.667 6.66699 -17 12c-7.33301 7.33301 -12 15.666 -14 24.999v97c2 10 6.66699 18.667 14 26c7.33301 6.66699 15.666 11 24.999 13zM287.001 618.002l57.001 1.00293
c38 0 60.333 -1.66699 67 -5c9.33301 -4.66699 16.333 -12 21 -22c3.33301 -6 5 -20.333 5 -43c0 1.33301 0 -4.66699 0 -18c0 -34.667 -1.66699 -55 -5 -61c-4.66699 -10 -11.667 -17.333 -21 -22c-6.66699 -3.33301 -21 -5 -43 -5h-23c-37.333 0 -59.333 1 -66 3
c-6 2 -11.667 5.66699 -17 11c-7.33301 7.33301 -12 15.666 -14 24.999v98c2 9.33301 6.66699 17.666 14 24.999s15.666 11.666 24.999 12.999z" />
    <glyph glyph-name="semicolon" unicode=";" 
d="M242 337l102 -0.000976562c69.333 0 107.333 -1.66699 114 -5c9.33301 -4.66699 16.333 -11.667 21 -21c3.33301 -6.66699 5 -21 5 -43v-99c0 -88.667 -1.66699 -136 -5 -142c-4.66699 -10 -11.667 -17.333 -21 -22c-9.33301 -4 -18.333 -5.66699 -27 -5
c-3.33301 0.666992 -7 1.66699 -11 3c-6 2 -11.667 5.66699 -17 11c-5.33301 6 -9 11.667 -11 17c-2 6 -3 43.333 -3 112v99h-75c-51.333 0 -80.333 1.66699 -87 5c-12 6 -20.333 16 -25 30l-1 20c0.666992 2 1 3.66699 1 5c2 6.66699 5 12.334 9 17.001
c8 10 18.333 16 31 18zM240 657.999l57.001 1c38 0 60.333 -1.66699 67 -5c9.33301 -4.66699 16.333 -12 21 -22c3.33301 -6.66699 5 -20.667 5 -42c0 0.666992 0 -5.66602 0 -18.999c0 -34 -1.66699 -54.333 -5 -61c-4.66699 -10 -11.667 -17.333 -21 -22
c-6.66699 -2.66699 -21 -4.33398 -43 -5.00098h-23c-37.333 0 -59.333 1 -66 3c-6 2 -11.667 6 -17 12c-7.33301 6.66699 -12 15 -14 25v96c2 10 6.66699 18.667 14 26c7.33301 6.66699 15.666 11 24.999 13z" />
    <glyph glyph-name="less" unicode="&#x3c;" 
d="M521 658c2 0.666992 5.33301 0.999023 10 0.999023l17 -3l4 -2c4 -2 8 -5 12 -9s7 -8 9 -12c3.33301 -6.66699 5 -14 5 -22c0 -16 -6.33301 -28.667 -19 -38c-2.66699 -2 -60.667 -36.333 -174 -103l-170 -100l170 -100c113.333 -66.667 171.333 -101 174 -103
c12.667 -9.33301 19 -22 19 -38l-3 -18l-2 -4c-2 -4 -5 -8 -9 -12s-8 -7 -12 -9c-7.33301 -3.33301 -15 -5 -23 -5c-7.33301 0 -14.333 1.66699 -21 5l-380 224c-6 4 -11 9 -15 15c-2.66699 4.66699 -4.66699 10 -6 16v57c1.33301 6 3.33301 11.333 6 16
c4 6.66699 9 12 15 16l380 223c4 2.66699 8.33301 4.33398 13 5.00098z" />
    <glyph glyph-name="equal" unicode="=" 
d="M147 337l194.999 0.000976562c132 0 200.667 -1 206 -3c12 -4.66699 20.667 -12.667 26 -24c8.66699 -18.667 6 -36 -8 -52c-7.33301 -8.66699 -16.666 -14 -27.999 -16h-198h-194l-4 1c-14.667 4.66699 -25 13.667 -31 27c-4 8 -5.33301 16.333 -4 25
c0.666992 5.33301 2 10 4 14c6.66699 15.333 18.667 24.666 36 27.999zM146.999 538.001h195c132 0.666992 200.667 -0.333008 206 -3c12 -4.66699 20.667 -12.667 26 -24c8.66699 -18.667 6 -36 -8 -52c-7.33301 -8.66699 -16.666 -14 -27.999 -16h-198h-194l-4 1
c-14.667 4.66699 -25 13.667 -31 27c-4.66699 9.33301 -5.66699 19.333 -3 30c1.33301 6 3.66602 11.333 6.99902 16c7.33301 11.333 18 18.333 32 21z" />
    <glyph glyph-name="greater" unicode="&#x3e;" 
d="M145 658c2 0.666992 5 0.999023 9 0.999023l18 -3l2 -1l381 -224c7.33301 -4.66699 13 -10.334 17 -17.001c2.66699 -4.66699 4.66699 -10 6 -16v-57c-1.33301 -6 -3.33301 -11.333 -6 -16c-4 -6.66699 -9.66699 -12 -17 -16l-381 -224c-6 -2.66699 -13.333 -4 -22 -4
c-12 0.666992 -22.333 5.33398 -31 14.001c-4 4 -7 8 -9 12c-4 6.66699 -5.66699 14.334 -5 23.001c0 5.33301 0.666992 9.66602 2 12.999c3.33301 10.667 9.66602 19 18.999 25l174 102l168 100l-168 99c-112.667 66 -170.667 100.333 -174 103
c-9.33301 6 -15.666 14 -18.999 24c-1.33301 4 -2 8.33301 -2 13l2 18c0.666992 2 1.66699 4 3 6c2 4 5 8 9 12s7.66699 6.66699 11 8c4.66699 2.66699 9 4.33398 13 5.00098z" />
    <glyph glyph-name="question" unicode="?" 
d="M242 95l19.001 -1c17.333 -4.66699 28.666 -16 33.999 -34v-22v-2c-5.33301 -18 -17 -29.667 -35 -35h-22h-1c-12.667 4 -22 10.667 -28 20c-5.33301 8 -8 17 -8 27c0 6.66699 1.33301 13 4 19c6.66699 16 19 25.333 37 28zM429.001 739
c7.33301 1.33301 15.001 0.666992 23.001 -2c4 -1.33301 7.66699 -3 11 -5l101 -86c6 -6 10.333 -13.333 13 -22l2 -5v-48v-48l-2 -5c-2 -6 -5 -11.667 -9 -17c-2 -2.66699 -47.667 -42.334 -137 -119.001l-135 -115v-31c0 -23.333 -1 -38 -3 -44
c-2 -5.33301 -5.33301 -10.666 -10 -15.999c-7.33301 -8 -16.333 -12.667 -27 -14c-16 -3.33301 -30 1.33398 -42 14.001c-6.66699 7.33301 -11 15.333 -13 24v98c2 9.33301 6.66699 17.666 14 24.999c3.33301 3.33301 49 42.333 137 117l131 113v18v18l-11 10l-23 19
l-12 11l-127 -108c-84.667 -72.667 -128 -109.667 -130 -111c-10 -6.66699 -21 -9 -33 -7c-4.66699 0.666992 -9.33398 2.33398 -14.001 5.00098c-17.333 8.66699 -26 22.667 -26 42c0 14 5 25.667 15 35l285 244c6.66699 5.33301 14 8.66602 22 9.99902z" />
    <glyph glyph-name="at" unicode="@" 
d="M263 739h82.001c54 0 83.667 -0.333008 89 -1c37.333 -6 69 -22 95 -48c10 -10 18 -20 24 -30c12 -19.333 20 -41 24 -65l2 -7v-227l-1 -236c-4.66699 -33.333 -19 -61.666 -43 -84.999c-21.333 -20.667 -47.333 -33.667 -78 -39h-38h-2c-26 4 -48.333 13.667 -67 29
c-4 2.66699 -6.33301 4.33398 -7 5.00098l-6 -4c-19.333 -15.333 -42 -25.333 -68 -30h-38h-3c-30 5.33301 -56 18.333 -78 39c-24 23.333 -38 51.666 -42 84.999c-0.666992 6 -1 40.667 -1 104s0.333008 98 1 104c4 32 17 59.333 39 82s49 36.334 81 41.001
c4.66699 1.33301 26.334 2 65.001 2h59l5 -2c16 -5.33301 26.667 -16.333 32 -33l1 -5v-142l1 -143l2 -5c2 -6 4.66699 -11 8 -15c4 -5.33301 9.33301 -9.33301 16 -12c6 -3.33301 12.667 -5 20 -5s14 1.66699 20 5c11.333 5.33301 19.333 14.333 24 27l2 5v221v226
c-3.33301 26.667 -17.333 45.667 -42 57l-7 3c-7.33301 2.66699 -33 4 -77 4h-11l-79 -1c-24 -2.66699 -45 -16.334 -63 -41.001c-1.33301 -2.66699 -3 -5.33398 -5 -8.00098c-4.66699 -8 -8.33398 -13.667 -11.001 -17c-6.66699 -6.66699 -14.667 -11 -24 -13l-20 1
c-17.333 4 -29 14.333 -35 31c-1.33301 4 -2 8.33301 -2 13l2 18c0.666992 2 1.66699 4.33301 3 7c5.33301 10.667 12.666 21.667 21.999 33c10 12.667 21 23.667 33 33c28.667 22.667 60.667 35.667 96 39zM294.001 248l1.00195 114.001h-26
c-16.667 0 -26 -0.333008 -28 -1c-2 0 -4.66699 -0.666992 -8 -2c-14.667 -4.66699 -24.334 -15 -29.001 -31l-1 -4v-95v-96l2 -5c4.66699 -14.667 13.667 -24.334 27 -29.001c10 -4 20 -4.33301 30 -1c5.33301 2 10.333 4.66699 15 8c7.33301 5.33301 12.666 13 15.999 23
l1 4v115z" />
    <glyph glyph-name="A" unicode="A" 
d="M334 739l21.0029 -0.998047l9 -3c9.33301 -4.66699 16.333 -12 21 -22c2 -3.33301 34.333 -113 97 -329c63.333 -216 95.333 -325 96 -327v-9c0 -20.667 -9.33301 -35.334 -28 -44.001c-10.667 -4.66699 -21.334 -5.33398 -32.001 -2.00098c-15.333 4 -26 13.667 -32 29
c-0.666992 2.66699 -7.33398 25 -20.001 67l-18 63h-106h-105l-19 -64c-12 -42.667 -18.667 -65 -20 -67c-3.33301 -9.33301 -9.33301 -16.666 -18 -21.999c-18 -12 -35.667 -11.667 -53 1c-10 6.66699 -16.333 16 -19 28l-1 20l1 2l190 650
c2 5.33301 5.66699 10.666 11 15.999c7.33301 7.33301 15.666 12 24.999 14zM381.003 388.002l-38 132l-39 -131l-39 -132h39h77h39z" />
    <glyph glyph-name="B" unicode="B" 
d="M107 370l0.000976562 369.998h149l149 -1l9 -1c43.333 -6.66699 79.666 -25 108.999 -55c9.33301 -9.33301 17.666 -19.333 24.999 -30c16.667 -25.333 26.667 -54 30 -86v-72c-4.66699 -46 -23 -84.667 -55 -116l-9 -9l9 -9c9.33301 -8.66699 17.666 -18.667 24.999 -30
c15.333 -23.333 25 -49.666 29 -78.999c1.33301 -6.66699 2 -21 2 -43s-0.666992 -36.333 -2 -43c-5.33301 -35.333 -18.666 -66.666 -39.999 -93.999c-8.66699 -11.333 -18.667 -21.333 -30 -30c-25.333 -20 -54 -33 -86 -39c-11.333 -2 -67.666 -3 -168.999 -3h-145v370z
M406.001 641.998l-7.00098 2.00098h-98h-99v-113v-113h99h98l7 2c36 7.33301 60 27.666 72 60.999c0.666992 3.33301 1.33398 6.33301 2.00098 9c2 8 3 23 3 45c0 16.667 -0.666992 27 -2 31c-6 31.333 -23 54 -51 68c-7.33301 3.33301 -15.333 6 -24 8zM406 320.999l-7 1
h-98h-99v-113v-113h99h98l7 1c30.667 6.66699 53 23.667 67 51c4 8 6.66699 16.667 8 26c1.33301 4 2 15.667 2 35s-0.666992 31 -2 35c-6 31.333 -23 54 -51 68c-7.33301 4 -15.333 7 -24 9z" />
    <glyph glyph-name="C" unicode="C" 
d="M336 739c6 0.666992 40.6641 1.00098 103.997 1.00098l99 -1c20.667 -4 33.334 -16 38.001 -36c0.666992 -3.33301 1 -7 1 -11c0 -19.333 -9.66699 -34 -29 -44c-5.33301 -2.66699 -29.666 -4 -72.999 -4h-34c-64 0 -97.333 -0.333008 -100 -1
c-10 -3.33301 -18.333 -9 -25 -17c-2 -2.66699 -12 -22.334 -30 -59.001c-46.667 -92 -72 -142.667 -76 -152c-3.33301 -7.33301 -5.66602 -16 -6.99902 -26v-36v-2c1.33301 -10 3.66602 -18.667 6.99902 -26c4 -9.33301 29.333 -60.333 76 -153c18 -36 28 -55.333 30 -58
c6.66699 -8 15 -13.667 25 -17c2.66699 -0.666992 36 -1 100 -1c66 -0.666992 101.667 -2 107 -4c18.667 -7.33301 28.334 -22 29.001 -44c0 -21.333 -9.66699 -36 -29 -44l-10 -3h-200c-46.667 5.33301 -82.334 28 -107.001 68l-108 216c-8 18.667 -13.333 38.667 -16 60
v47v3c2.66699 21.333 8 41.333 16 60l108 216c24.667 39.333 59.334 62 104.001 68z" />
    <glyph glyph-name="D" unicode="D" 
d="M147 739c2 0.666992 34.333 0.996094 97 0.996094l102 -1c45.333 -5.33301 81 -28 107 -68c2 -3.33301 20.333 -39.333 55 -108c38.667 -77.333 59.667 -122.666 63 -135.999l2 -5c4 -16 6 -33.333 6 -52s-2 -36 -6 -52s-19.333 -50 -46 -102
c-4 -8.66699 -10.333 -21.667 -19 -39c-34.667 -68.667 -53.334 -105 -56.001 -109c-8 -13.333 -18.333 -25.333 -31 -36c-21.333 -17.333 -45.666 -27.666 -72.999 -30.999l-106 -1h-96l-4 2c-22 6.66699 -33.667 22 -35 46c0 22.667 11.667 38 35 46
c2.66699 0.666992 13 1.33398 31 2.00098h28v274v274h-28c-18 0 -28.333 0.666992 -31 2c-14.667 4 -25 12.667 -31 26c-4 8 -5.33301 16.667 -4 26c0.666992 4.66699 2 9.33398 4 14.001c6.66699 15.333 18.667 24.333 36 27zM342 642.996c-2 0.666992 -10 1 -24 1h-22
v-274v-274h22c16 0 27 1.66699 33 5c6.66699 2.66699 12.334 7 17.001 13c2 2.66699 29.667 57 83 163c15.333 30.667 24 48.667 26 54c2.66699 10 4.66699 20 6 30c0.666992 10.667 0 21.334 -2 32.001l-4 16c-2 5.33301 -10.667 23.333 -26 54
c-53.333 105.333 -81 159.666 -83 162.999c-6.66699 8 -15.334 13.667 -26.001 17z" />
    <glyph glyph-name="E" unicode="E" 
d="M107 370l-0.00292969 370h214c142.667 0 215.334 -0.333008 218.001 -1c20.667 -4 33.334 -16 38.001 -36c0.666992 -3.33301 1 -7 1 -11c0 -20.667 -9.33301 -35.334 -28 -44.001c-3.33301 -1.33301 -7 -2.33301 -11 -3c-2.66699 -0.666992 -59.334 -1 -170.001 -1h-167
v-113v-113h75c51.333 0 80.333 -1.66699 87 -5c9.33301 -4.66699 16.333 -12 21 -22c3.33301 -6 5 -13 5 -21c0 -7.33301 -1.66699 -14.333 -5 -21c-4.66699 -9.33301 -11.667 -16.666 -21 -21.999c-6.66699 -2.66699 -21 -4 -43 -4c-2 0 -16.667 -0.333008 -44 -1h-75v-113
v-113h167c110.667 0 167.334 -0.333008 170.001 -1c20.667 -4 33.334 -16 38.001 -36c0.666992 -3.33301 1 -7 1 -11c0 -21.333 -9.66699 -36 -29 -44l-10 -3l-218 -1h-214v370z" />
    <glyph glyph-name="F" unicode="F" 
d="M107 392l-0.000976562 348h214c142.667 0 215.334 -0.333008 218.001 -1c20.667 -4 33.334 -16 38.001 -36c0.666992 -3.33301 1 -7 1 -11c0 -20.667 -9.33301 -35.334 -28 -44.001c-3.33301 -1.33301 -7 -2.33301 -11 -3c-2.66699 -0.666992 -59.334 -1 -170.001 -1
h-167v-73v-73h122h121l4 -1c16.667 -5.33301 27.667 -16 33 -32c1.33301 -4 2 -9 2 -15s-0.666992 -10.667 -2 -14c-5.33301 -16 -16.333 -26.667 -33 -32l-4 -1h-121l-122 -1v-181l-1 -185c-2 -7.33301 -5 -13.333 -9 -18c-4.66699 -5.33301 -10 -9.66602 -16 -12.999
c-9.33301 -4 -18.333 -5.66699 -27 -5c-3.33301 0.666992 -7 1.66699 -11 3c-6 2 -11.667 5.66699 -17 11c-5.33301 6 -9 11.667 -11 17c-2 6 -3 63.333 -3 172v189z" />
    <glyph glyph-name="G" unicode="G" 
d="M371 739c5.33301 0.666992 33.999 0.998047 85.999 0.998047l82 -1c20.667 -4 33.334 -16 38.001 -36c0.666992 -3.33301 1 -7 1 -11c0 -20 -9.66699 -34.667 -29 -44c-5.33301 -2.66699 -29 -4 -71 -4h-18c-55.333 0 -86 -1.66699 -92 -5
c-6 -2.66699 -15 -11.667 -27 -27l-53 -68l-69 -89c-6.66699 -10 -11.667 -22 -15 -36l-1 -6v-139c0 -92 0.333008 -139.333 1 -142c4 -14.667 12.667 -25 26 -31c6 -3.33301 21.333 -5 46 -5h67c69.333 0 107 1.66699 113 5c10 4.66699 17.333 12 22 22
c3.33301 6 5 21.333 5 46c0 -6.66699 0 -0.333984 0 18.999v54h-49c-34.667 0 -55 1 -61 3s-11.667 5.66699 -17 11s-9 11.333 -11 18c-2.66699 6.66699 -3.66699 13.334 -3 20.001c0.666992 3.33301 1.33398 7 2.00098 11c2.66699 6.66699 6.66699 12.667 12 18s11 9 17 11
s42.333 3 109 3h97v-101c0 -66.667 -0.333008 -103.334 -1 -110.001c-2 -16 -6.66699 -31.333 -14 -46c-20.667 -41.333 -53.667 -67 -99 -77l-12 -2c-6.66699 -0.666992 -43.334 -1 -110.001 -1c-72 0 -113 1 -123 3c-16 4 -31 10 -45 18
c-39.333 24.667 -61.666 60.334 -66.999 107.001l-1 290l1 1c2.66699 32.667 13 62 31 88c3.33301 4.66699 27.333 36.334 72 95.001c45.333 58 70.333 89 75 93c23.333 24.667 51.666 39.334 84.999 44.001z" />
    <glyph glyph-name="H" unicode="H" 
d="M146 739l21 -0.999023l9 -3c9.33301 -4.66699 16.333 -12 21 -22c3.33301 -6 5 -19.667 5 -41v-113v-141h141h140v139c0 95.333 1 146 3 152c2 5.33301 6 10.666 12 15.999c5.33301 6 11 10 17 12c8 2.66699 16 3.33398 24 2.00098c4.66699 -0.666992 9 -2 13 -4
c10 -4.66699 17.333 -12 22 -22c1.33301 -3.33301 2.66602 -6.33301 3.99902 -9c0.666992 -2.66699 1 -114 1 -334s-0.333008 -331.333 -1 -334c-1.33301 -2.66699 -2.66602 -5.66699 -3.99902 -9c-4.66699 -10 -12 -17.333 -22 -22c-8.66699 -4 -17.667 -5.66699 -27 -5
c-3.33301 0.666992 -6.66602 1.66699 -9.99902 3c-6 2 -11.667 5.66699 -17 11c-6 6 -10 11.667 -12 17c-2 6 -3 47.667 -3 125v27v139h-140h-141v-141c0 -96.667 -1.66699 -148 -5 -154c-4.66699 -10 -11.667 -17.333 -21 -22c-9.33301 -4 -18.333 -5.66699 -27 -5
c-3.33301 0.666992 -7 1.66699 -11 3c-6 2 -11.667 5.66699 -17 11c-7.33301 7.33301 -12 16 -14 26v660c2 9.33301 6.66699 17.666 14 24.999s15.666 12 24.999 14z" />
    <glyph glyph-name="I" unicode="I" 
d="M147 739c2 0.666992 66.999 1 194.999 1l197 -1c20.667 -4 33.334 -16 38.001 -36c0.666992 -3.33301 1 -7 1 -11c0 -20.667 -9.33301 -35.334 -28 -44.001c-3.33301 -1.33301 -7 -2.33301 -11 -3c-2.66699 -0.666992 -28 -1 -76 -1h-73v-274v-274h73
c50.667 0 79 -1 85 -3c12 -4.66699 20.667 -13 26 -25c8.66699 -18.667 6 -36 -8 -52l-12 -10l-16 -5l-198 -1h-194l-4 2c-22 6.66699 -33.667 22 -35 46c0 22 11.667 37.333 35 46l4 1l74 1h75v274v274h-75h-74l-4 2c-14.667 4 -25 12.667 -31 26
c-4 8 -5.33301 16.667 -4 26c0.666992 4.66699 2 9.33398 4 14.001c6.66699 15.333 18.667 24.333 36 27z" />
    <glyph glyph-name="J" unicode="J" 
d="M475 739l19.998 -1.00098c7.33301 -1.33301 13.666 -4.33301 18.999 -9c7.33301 -6.66699 12.666 -15 15.999 -25c0.666992 -2.66699 1 -98 1 -286l-1 -291c-1.33301 -12 -3.66602 -22.667 -6.99902 -32c-16 -42.667 -45.333 -71.667 -88 -87
c-10 -3.33301 -20.667 -5.66602 -32 -6.99902h-121c-47.333 5.33301 -83.333 28.333 -108 69c-10.667 18 -17 37.333 -19 58l-1 170c1.33301 6 3.33301 11.333 6 16c4.66699 6.66699 10.334 12.334 17.001 17.001c5.33301 2.66699 11.666 4.66699 18.999 6
c6.66699 0.666992 13.334 0 20.001 -2c4 -1.33301 7.66699 -3 11 -5c9.33301 -6 15.666 -13.667 18.999 -23c2 -5.33301 3 -32 3 -80v-11c0.666992 -56 2.33398 -87 5.00098 -93c6.66699 -12.667 17 -21.334 31 -26.001l4 -1h53c38 0 60 1.66699 66 5
c13.333 6 22 16.333 26 31c0.666992 2 1.33398 97 2.00098 285c0 188.667 0.333008 284 1 286c2.66699 9.33301 7.33398 17.333 14.001 24c6.66699 6 14.667 10 24 12z" />
    <glyph glyph-name="K" unicode="K" 
d="M146 739l21 -0.99707l9 -3c9.33301 -4.66699 16.333 -12 21 -22c3.33301 -6 5 -20.333 5 -43v-83l1 -113l148 127c98.667 84.667 149.334 127.667 152.001 129c10.667 8 22.334 11 35.001 9c3.33301 -0.666992 6.33301 -1.33398 9 -2.00098
c12.667 -4.66699 21.667 -13 27 -25c6 -12.667 6.33301 -25.334 1 -38.001l-9 -14l-3 -3c-2 -2 -58.333 -50.333 -169 -145l-166 -142c0 -0.666992 55.333 -48 166 -142c110.667 -94.667 167 -143 169 -145c10 -10 15 -21.667 15 -35c0 -14 -5 -25.667 -15 -35
c-12 -11.333 -26 -15.333 -42 -12l-17 8h-1c-2.66699 2 -53.334 45.333 -152.001 130l-148 126l-1 -113c0 -77.333 -1.66699 -119 -5 -125c-4.66699 -10 -11.667 -17.333 -21 -22c-9.33301 -4 -18.333 -5.66699 -27 -5c-3.33301 0.666992 -7 1.66699 -11 3
c-6 2 -11.667 5.66699 -17 11c-7.33301 7.33301 -12 16 -14 26v660c2 9.33301 6.66699 17.666 14 24.999s15.666 12 24.999 14z" />
    <glyph glyph-name="L" unicode="L" 
d="M146 739l21 -0.998047c6.66699 -1.33301 12.667 -4.33301 18 -9c7.33301 -6.66699 12.666 -15 15.999 -25c0.666992 -2.66699 1 -104.667 1 -306v-302h167c110.667 0 167.334 -0.333008 170.001 -1c20.667 -4 33.334 -16 38.001 -36c0.666992 -3.33301 1 -7 1 -11
c0 -21.333 -9.66699 -36 -29 -44l-10 -3l-218 -1h-214v348c0 235.333 1 355.666 3 360.999s5.66699 10.666 11 15.999c7.33301 7.33301 15.666 12 24.999 14z" />
    <glyph glyph-name="M" unicode="M" 
d="M107 392l-0.000976562 347.999h59h60l7 -9l55 -80l52 -74l3 -3l58 83l58 83h60h60v-350c0 -234 -0.333008 -352 -1 -354c-4.66699 -14.667 -13.334 -25 -26.001 -31c-8.66699 -4 -17.667 -5.66699 -27 -5c-3.33301 0.666992 -6.66602 1.66699 -9.99902 3
c-6 2 -11.333 5.33301 -16 10c-6.66699 6 -11.667 14 -15 24c-0.666992 2 -1 97.667 -1 287v283l-46 -66l-47 -66v-14c0 -16 -2 -27.667 -6 -35c-4 -6 -9.33301 -11.333 -16 -16c-8.66699 -5.33301 -19 -7.66602 -31 -6.99902c-7.33301 0.666992 -13.666 2.66699 -18.999 6
c-9.33301 6 -16 13.667 -20 23c-2 6 -3 15 -3 27l-1 17l-46 65l-45 65l-1 -283c0 -189.333 -0.333008 -285 -1 -287c-4 -14.667 -12.333 -25 -25 -31c-9.33301 -4 -18.333 -5.66699 -27 -5c-3.33301 0.666992 -7 1.66699 -11 3c-6 2 -11.667 5.66699 -17 11
c-5.33301 6 -9 11.667 -11 17c-2 6 -3 63.333 -3 172v189z" />
    <glyph glyph-name="N" unicode="N" 
d="M107 392l-0.000976562 347.999h63l63 -1l6 -14l125 -285l119 -270v265c0 176.667 0.333008 266 1 268c3.33301 9.33301 8.33301 17.333 15 24c4.66699 4.66699 10 8 16 10c8 2.66699 16 3.33398 24 2.00098c4.66699 -0.666992 9 -2 13 -4
c12.667 -6.66699 21.334 -17 26.001 -31c0.666992 -2.66699 1 -120.667 1 -354v-350h-63h-64l-125 285l-124 284l-1 -265c0 -176.667 -0.333008 -266 -1 -268c-4 -14.667 -12.333 -25 -25 -31c-9.33301 -4 -18.333 -5.66699 -27 -5c-3.33301 0.666992 -7 1.66699 -11 3
c-6 2 -11.667 5.66699 -17 11c-5.33301 6 -9 11.667 -11 17c-2 6 -3 63.333 -3 172v189z" />
    <glyph glyph-name="O" unicode="O" 
d="M328 739c3.33301 0.666992 8.00293 1 14.0029 1c28.667 0 54.667 -9.33301 78 -28c7.33301 -5.33301 13.666 -11.666 18.999 -18.999c4 -4.66699 7.33301 -9.33398 10 -14.001c2.66699 -4 22 -42.333 58 -115c36 -72 55.333 -111 58 -117c12 -33.333 16.333 -67 13 -101
c-2 -12.667 -4.66699 -25 -8 -37s-24.333 -56.667 -63 -134c-36 -72 -55.333 -110 -58 -114c-4.66699 -8 -10.334 -15.667 -17.001 -23c-30.667 -31.333 -67.334 -43.333 -110.001 -36c-12 2 -23.333 5.66699 -34 11c-21.333 10 -38.333 25.333 -51 46l-115 230
c-6.66699 17.333 -11.334 36 -14.001 56v47v3c2.66699 20 7.33398 38.667 14.001 56l115 230c16 26 38.333 43.333 67 52c7.33301 2.66699 15.333 4.66699 24 6zM349.003 643c-6.66699 1.33301 -12.667 0.666992 -18 -2c-3.33301 -1.33301 -6.33301 -3.33301 -9 -6
c-2.66699 -2 -21.334 -38.333 -56.001 -109c-35.333 -70.667 -53.666 -108 -54.999 -112c-3.33301 -7.33301 -5.66602 -15.666 -6.99902 -24.999v-37v-1c1.33301 -9.33301 3.66602 -17.666 6.99902 -24.999c1.33301 -4 19.666 -41.333 54.999 -112
c34.667 -70.667 53.334 -107.334 56.001 -110.001c4 -4 8.66699 -6.33301 14 -7c6 -2 12 -1.66699 18 1c3.33301 1.33301 6.33301 3.33301 9 6c2 2.66699 13 24 33 64l54 108c16 31.333 25 49.666 27 54.999c4.66699 14.667 6.66699 29.334 6 44.001v4
c-1.33301 10 -3.33301 20 -6 30c-2 5.33301 -11 23.666 -27 54.999l-54 108c-20 40 -31 61 -33 63c-4 4 -8.66699 6.66699 -14 8z" />
    <glyph glyph-name="P" unicode="P" 
d="M107 392v348h171c118 -0.666992 180.667 -2 188 -4c2 0 3.33301 -0.333008 4 -1c44 -10.667 75.667 -36.667 95 -78c6.66699 -14.667 11 -29.667 13 -45v-201v-1c-5.33301 -47.333 -28.333 -83.333 -69 -108c-17.333 -10 -36 -16.333 -56 -19
c-6.66699 -0.666992 -50 -1 -130 -1h-121v-121c0 -83.333 -1.66699 -128 -5 -134c-4.66699 -10 -11.667 -17.333 -21 -22c-9.33301 -4 -18.333 -5.66699 -27 -5c-3.33301 0.666992 -7 1.66699 -11 3c-6 2 -11.667 5.66699 -17 11c-5.33301 6 -9 11.667 -11 17
c-2 6 -3 63.333 -3 172v189zM447 643c-2 0.666992 -43.333 1.00098 -124 1.00098h-121v-133v-133h121c82.667 0 127 1.66699 133 5c10 4.66699 17.333 12 22 22c3.33301 6 5 21.667 5 47v59v93l-2 5c-4.66699 17.333 -16 28.666 -34 33.999z" />
    <glyph glyph-name="Q" unicode="Q" 
d="M448 739c17.333 2 35.002 0.000976562 53.002 -5.99902c9.33301 -3.33301 17.666 -7.33301 24.999 -12c30 -20 47.333 -48 52 -84c0.666992 -4.66699 1 -54.334 1 -149.001c0 -99.333 -1 -154.666 -3 -165.999c-6.66699 -38 -23.667 -71 -51 -99
c-4.66699 -5.33301 -19 -18 -43 -38l-35 -30l18 -48l4 -11h33c22 0 34.333 -0.333008 37 -1c20.667 -4 33.334 -16 38.001 -36c0.666992 -3.33301 1 -7 1 -11c0 -21.333 -9.66699 -36 -29 -44l-10 -3l-70 -1h-65l-17 44c-11.333 29.333 -17.333 44 -18 44l-37 -32
c-24.667 -20.667 -39.334 -32.667 -44.001 -36c-26 -17.333 -54 -23.333 -84 -18c-12 2 -23.333 5.66699 -34 11c-31.333 15.333 -51.333 40.333 -60 75c-2 10 -3 53.667 -3 131c0 -53.333 0 -41 0 37v146l2 9c5.33301 35.333 18.666 66.333 39.999 93
c7.33301 9.33301 48 45.666 122 108.999l70 60c34 28.667 53.333 44.667 58 48c14.667 9.33301 31 15.333 49 18zM471.002 642.001c-4 2 -8.33398 2.33203 -13.001 0.999023l-6 -2c-2 -0.666992 -67 -56 -195 -166c-18 -15.333 -28.333 -24.333 -31 -27
c-11.333 -13.333 -18.666 -28.666 -21.999 -45.999l-1 -7v-142v-142l1 -3c2.66699 -4.66699 6 -8 10 -10c2.66699 -1.33301 5.66699 -2 9 -2c4 0 7 0.666992 9 2c2.66699 1.33301 19.334 15.333 50.001 42l49 41l2 2l-18 45c-12 30.667 -18.333 47.334 -19 50.001
c-2 7.33301 -2 15 0 23c1.33301 4.66699 3 9 5 13c4.66699 6.66699 10.334 12.334 17.001 17.001c5.33301 2.66699 11.666 4.66699 18.999 6c6.66699 0.666992 13.667 0 21 -2c4 -1.33301 7.33301 -3 10 -5c6.66699 -4.66699 12 -10 16 -16
c1.33301 -2.66699 4.33301 -10.334 9 -23.001l12 -31l5 -11l20 17c14 12 22.667 19.667 26 23c13.333 13.333 21.666 29.666 24.999 48.999l2 7v142v142l-2 3c-2 4.66699 -5.33301 8 -10 10z" />
    <glyph glyph-name="R" unicode="R" 
d="M107 392l0.00292969 347.998h171c118 -0.666992 180.667 -2 188 -4c2 0 3.33301 -0.333008 4 -1c44 -10.667 75.667 -37 95 -79l11 -30l2 -15l1 -44c-0.666992 -26.667 -2.33398 -45.334 -5.00098 -56.001c-10.667 -43.333 -36.334 -74.666 -77.001 -93.999l-27 -10
c-10.667 -2.66699 -29.334 -4.33398 -56.001 -5.00098h-35l98 -167c64.667 -111.333 97.334 -168 98.001 -170c4.66699 -12.667 4.66699 -24.667 0 -36c-2.66699 -6 -6.66699 -11.333 -12 -16c-12.667 -12 -27.667 -15.667 -45 -11
c-8.66699 2.66699 -16.334 7.33398 -23.001 14.001c-2 2.66699 -4.33301 6.33398 -7 11.001l-112 191l-108 184h-33h-33v-181l-1 -185c-2 -7.33301 -5 -13.333 -9 -18c-4.66699 -5.33301 -10 -9.66602 -16 -12.999c-9.33301 -4 -18.333 -5.66699 -27 -5
c-3.33301 0.666992 -7 1.66699 -11 3c-6 2 -11.667 5.66699 -17 11c-5.33301 6 -9 11.667 -11 17c-2 6 -3 63.333 -3 172v189zM447.003 642.998c-2 0.666992 -43.333 0.99707 -124 0.99707h-121v-73v-73h121c82.667 0.666992 127 2.33398 133 5.00098
c10 4.66699 17.333 12.334 22 23.001c3.33301 6 5 21 5 45s-1.66699 39.333 -5 46c-6 12.667 -16.333 21.334 -31 26.001z" />
    <glyph glyph-name="S" unicode="S" 
d="M200 739c4 0.666992 47.999 0.998047 131.999 0.998047l133 -1c30.667 -4 56.334 -16.667 77.001 -38s32.667 -47 36 -77c2 -14 0.666992 -25.333 -4 -34l-10 -13c-9.33301 -8.66699 -20.333 -13 -33 -13c-4.66699 0 -9 0.333008 -13 1
c-8.66699 2.66699 -15.667 7 -21 13c-8 8.66699 -12.667 19.667 -14 33c0 4.66699 -0.666992 8.66699 -2 12c-3.33301 9.33301 -10 15.666 -20 18.999l-4 2h-123h-124l-2 -2c-4.66699 -3.33301 -6.33398 -8.33301 -5.00098 -15
c1.33301 -1.33301 60.666 -77.666 177.999 -228.999l180 -231c9.33301 -14 15 -29.333 17 -46c4.66699 -34.667 -6 -64.667 -32 -90c-13.333 -13.333 -29.333 -22.333 -48 -27c-9.33301 -2.66699 -50 -4 -122 -4h-24c-83.333 0 -127.333 0.333008 -132 1
c-30.667 4 -56.334 16.667 -77.001 38s-32.667 47 -36 77c-1.33301 13.333 0 24.333 4 33c2 4 5 8 9 12c6 6.66699 13.333 11 22 13c3.33301 1.33301 7.33301 2 12 2c8.66699 0 16.334 -2 23.001 -6c3.33301 -1.33301 6.66602 -3.66602 9.99902 -6.99902
c9.33301 -8.66699 14.333 -20 15 -34c0.666992 -5.33301 1.33398 -9.33301 2.00098 -12c4 -9.33301 10.667 -15.666 20 -18.999l4 -2h123h122l3 1c6 2.66699 8 7.66699 6 15c0 1.33301 -59.333 78 -178 230l-180 231c-15.333 24 -20.666 50 -15.999 78
c2.66699 14.667 8.33398 28 17.001 40c18 27.333 43 43.333 75 48z" />
    <glyph glyph-name="T" unicode="T" 
d="M107 674l0.000976562 66h236h236v-66c0 -47.333 -1.33301 -74 -4 -80c-4.66699 -12.667 -13.334 -21.667 -26.001 -27c-5.33301 -2 -11.333 -3 -18 -3c-8 0 -15 1.33301 -21 4c-11.333 6 -19.333 14.667 -24 26c-2 6 -3 16.667 -3 32v18h-46h-47v-302
c0 -202 -0.333008 -304 -1 -306c-4 -14.667 -12.333 -25 -25 -31c-9.33301 -4 -18.333 -5.66699 -27 -5c-3.33301 0.666992 -7 1.66699 -11 3c-6 2 -11.667 5.66699 -17 11c-5.33301 6 -9 11.667 -11 17c-2 6 -3 61.333 -3 166v147v300h-47h-46v-18c0 -15.333 -1 -26 -3 -32
c-4.66699 -12.667 -13.667 -21.667 -27 -27c-5.33301 -2 -11.333 -3 -18 -3c-7.33301 0 -14 1.33301 -20 4c-12 6 -20 14.667 -24 26c-2 6 -3 32.667 -3 80z" />
    <glyph glyph-name="U" unicode="U" 
d="M146 739l21 -0.999023c6.66699 -1.33301 12.667 -4.33301 18 -9c7.33301 -6.66699 12.666 -15 15.999 -25c0.666992 -2.66699 1 -98 1 -286c0.666992 -188.667 1.33398 -284 2.00098 -286c4 -14.667 12.667 -25 26 -31c6 -3.33301 21.333 -5 46 -5h67
c69.333 0 107 1.66699 113 5c12.667 6 21.334 16.333 26.001 31c0.666992 2 1 97 1 285c0 188.667 0.333008 284 1 286c3.33301 9.33301 8.33301 17.333 15 24c4.66699 4.66699 10 8 16 10c8 2.66699 16 3.33398 24 2.00098c4.66699 -0.666992 9 -2 13 -4
c12.667 -6.66699 21.334 -17 26.001 -31c0.666992 -2.66699 1 -98 1 -286l-1 -291c-2 -16.667 -6.66699 -32.334 -14 -47.001c-20.667 -41.333 -53.667 -67 -99 -77l-12 -2c-6.66699 -0.666992 -43.334 -1 -110.001 -1c-67.333 0 -103.333 0.333008 -108 1
c-45.333 5.33301 -80.333 27 -105 65c-9.33301 14 -16 29.667 -20 47c-2 10 -3 75.333 -3 196c0 -16.667 0 19 0 107c0 190 1 287.667 3 293s5.66699 10.666 11 15.999c7.33301 7.33301 15.666 12 24.999 14z" />
    <glyph glyph-name="V" unicode="V" 
d="M146 739l20.999 -0.99707l9 -3c9.33301 -4.66699 16.333 -12 21 -22c3.33301 -6.66699 5 -21.334 5 -44.001v-49l1 -81l70 -179l70 -179c0 0.666992 23.333 60.667 70 180l70 179v78c0 54.667 1 85 3 91c2 5.33301 6 10.666 12 15.999c5.33301 6 11 10 17 12
c8 2.66699 16 3.33398 24 2.00098c4.66699 -0.666992 9 -2 13 -4c10 -4.66699 17.333 -12 22 -22c2.66699 -6.66699 4.33398 -21 5.00098 -43v-59v-89l-96 -247c-64 -164 -96.667 -247 -98 -249c-2 -4.66699 -5.33301 -9 -10 -13
c-15.333 -14.667 -32.666 -17.667 -51.999 -9l-14 11c-4 3.33301 -7.33301 7.66602 -10 12.999c-0.666992 2.66699 -32 83 -94 241l-95 245l-3 8v87c0 60.667 1 94 3 100c2 5.33301 5.66699 10.666 11 15.999c7.33301 7.33301 15.666 12 24.999 14z" />
    <glyph glyph-name="W" unicode="W" 
d="M146 739l21.0039 -0.999023c6.66699 -1.33301 12.667 -4.33301 18 -9c7.33301 -6.66699 12.666 -15 15.999 -25c0.666992 -2.66699 1 -97 1 -283v-280l14 -22l13 -23h20h19l13 22l14 23v159c0 108.667 1.66699 165.667 5 171c6 12.667 16 21.334 30 26.001
c3.33301 0.666992 7.33301 1 12 1c8 0 15.333 -1.66699 22 -5c9.33301 -4.66699 16.333 -12 21 -22c3.33301 -6 5 -19.333 5 -40v-131l1 -159l13 -22l13 -23h20h19l14 23l13 23v277c0 188 1 284.667 3 290s6 10.666 12 15.999c5.33301 6 11 10 17 12
c8 2.66699 16 3.33398 24 2.00098c4.66699 -0.666992 9 -2 13 -4c12.667 -6.66699 21.334 -17 26.001 -31c0.666992 -2.66699 1 -101.334 1 -296.001v-293l-26 -44c-18 -30 -27.667 -46.333 -29 -49c-4 -6.66699 -9.33301 -11.667 -16 -15
c-4.66699 -3.33301 -10.334 -5.33301 -17.001 -6l-57 -1c-34.667 0 -53.667 0.666992 -57 2c-12.667 4 -22.667 12 -30 24l-4 7c-0.666992 0 -2.33398 -2.33301 -5.00098 -7c-7.33301 -12 -17.333 -20 -30 -24c-2.66699 -1.33301 -21.334 -2 -56.001 -2l-57 1
c-6.66699 0.666992 -12.667 2.66699 -18 6c-6 3.33301 -11.333 8.66602 -16 15.999c-2 2 -11.667 18 -29 48l-26 44v288c0 197.333 1.33301 299 4 305c2 6 5.66699 11.667 11 17c7.33301 7.33301 15.666 12 24.999 14z" />
    <glyph glyph-name="X" unicode="X" 
d="M147 739c6.66699 1.33301 13.6689 0.999023 21.002 -1.00098c4 -1.33301 7.66699 -3 11 -5c6 -4 11 -9 15 -15c2 -2.66699 27.333 -45.667 76 -129l72 -124l2 2l72 123l74 126c11.333 19.333 27.666 27 48.999 23c9.33301 -2 17.333 -6 24 -12
c6.66699 -6.66699 11.334 -14.667 14.001 -24c1.33301 -5.33301 1.66602 -11.666 0.999023 -18.999c-0.666992 -4 -2 -7.66699 -4 -11c-0.666992 -2 -30 -53 -88 -153l-88 -150c0 -0.666992 29.333 -50.667 88 -150c58 -100 87.333 -151 88 -153
c3.33301 -7.33301 4.66602 -15.333 3.99902 -24c0 -2 -0.333008 -4.33301 -1 -7c-2.66699 -8.66699 -7.33398 -16.334 -14.001 -23.001c-14.667 -13.333 -31 -16.666 -49 -9.99902c-10.667 4 -18.667 11 -24 21l-74 125l-72 124l-2 2l-72 -125l-76 -129
c-6 -8.66699 -13.667 -14.667 -23 -18c-18 -6.66699 -34 -3.66699 -48 9c-7.33301 6.66699 -12.333 15 -15 25c-1.33301 6 -1.66602 12.333 -0.999023 19c0.666992 4 1.66699 7.66699 3 11c1.33301 2 31 53 89 153c58.667 99.333 88 149.333 88 150l-88 150
c-58 100 -87.667 151 -89 153c-3.33301 7.33301 -4.33301 15.666 -3 24.999c0.666992 4.66699 2 9.33398 4 14.001c6.66699 15.333 18.667 24.333 36 27z" />
    <glyph glyph-name="Y" unicode="Y" 
d="M146 739l21 -1.00098l9 -3c9.33301 -4.66699 16.333 -12 21 -22c3.33301 -6.66699 5 -20.667 5 -42v-7l1 -37l70 -89l70 -89c0.666992 0.666992 24.334 30.667 71.001 90l69 89v34c0 25.333 1 41 3 47c2 5.33301 6 10.666 12 15.999c5.33301 6 11 10 17 12
c8 2.66699 16 3.33398 24 2.00098c4.66699 -0.666992 9 -2 13 -4c10 -4.66699 17.333 -12 22 -22c3.33301 -6.66699 5 -20.667 5 -42c0 0.666992 0 -7 0 -23v-53l-24 -31l-94 -121l-70 -89l-1 -157c0 -107.333 -1.66699 -164 -5 -170c-4.66699 -10 -11.667 -17.333 -21 -22
c-9.33301 -4 -18.333 -5.66699 -27 -5c-3.33301 0.666992 -7 1.66699 -11 3c-6 2 -11.667 5.66699 -17 11c-5.33301 6 -9 11.667 -11 17c-2 6 -3 49 -3 129v39v154l-95 121l-94 121v48c0 36.667 1.33301 58.334 4 65.001c2 6 5.66699 11.667 11 17
c7.33301 7.33301 15.666 12 24.999 14z" />
    <glyph glyph-name="Z" unicode="Z" 
d="M147 739c2 0.666992 74.332 0.999023 216.999 0.999023h215v-30v-31l-9 -15c-221.333 -378 -332 -567.333 -332 -568h148c99.333 0 150.333 -0.333008 153 -1c20.667 -4 33.334 -16 38.001 -36c0.666992 -3.33301 1 -7 1 -11c0 -21.333 -9.66699 -36 -29 -44l-10 -3
l-218 -1h-214v31v30l9 16c220.667 377.333 331 566.333 331 567h-150h-151l-4 2c-14.667 4 -25 12.667 -31 26c-4 8 -5.33301 16.667 -4 26c0.666992 4.66699 2 9.33398 4 14.001c6.66699 15.333 18.667 24.333 36 27z" />
    <glyph glyph-name="bracketleft" unicode="[" 
d="M146 739l392.998 0.00292969c20.667 -4 33.334 -16 38.001 -36c0.666992 -3.33301 1 -7 1 -11c0 -20.667 -9.33301 -35.334 -28 -44.001c-3.33301 -1.33301 -7 -2.33301 -11 -3c-2.66699 -0.666992 -36 -1 -100 -1h-96v-274v-274h96c64 0 97.333 -0.333008 100 -1
c20.667 -4 33.334 -16 38.001 -36c0.666992 -3.33301 1 -7 1 -11c0 -20.667 -9.33301 -35.334 -28 -44.001c-3.33301 -1.33301 -7 -2.33301 -11 -3h-393c-9.33301 2 -17.666 6.33301 -24.999 13c-7.33301 7.33301 -12 16 -14 26v660c2 9.33301 6.66699 17.666 14 24.999
s15.666 12 24.999 14zM247.998 370.003v274h-23h-23v-274v-274h23h23v274z" />
    <glyph glyph-name="backslash" unicode="\" 
d="M147 739c7.33301 1.33301 14.6689 0.666992 22.002 -2c4 -1.33301 8 -3 12 -5c5.33301 -4 10 -9.33301 14 -16l379 -649c3.33301 -7.33301 4.66602 -15.333 3.99902 -24c0 -2 -0.333008 -4.33301 -1 -7c-2.66699 -8.66699 -7.33398 -16.334 -14.001 -23.001
c-14.667 -13.333 -31 -16.666 -49 -9.99902l-16 10c-3.33301 3.33301 -6 7 -8 11l-380 649c-3.33301 7.33301 -4.33301 15.666 -3 24.999c0.666992 4.66699 2 9.33398 4 14.001c6.66699 15.333 18.667 24.333 36 27z" />
    <glyph glyph-name="bracketright" unicode="]" 
d="M147 739l198.001 1c129.333 -0.666992 195.333 -1.33398 198 -2.00098c7.33301 -2 13.333 -5 18 -9c8 -6.66699 13.667 -15 17 -25c0.666992 -2.66699 1 -114 1 -334s-0.333008 -331.333 -1 -334c-2 -6.66699 -5.33301 -12.667 -10 -18c-6.66699 -8 -15 -13.667 -25 -17
c-2.66699 -0.666992 -69.334 -1 -200.001 -1h-196l-5 2c-22 8.66699 -33.667 24 -35 46c0 22.667 11.667 38 35 46l4 1l98 1h98v274v274h-98h-98l-4 2c-14.667 4 -25 12.667 -31 26c-4 8 -5.33301 16.667 -4 26c0.666992 4.66699 2 9.33398 4 14.001
c6.66699 15.333 18.667 24.333 36 27zM483.001 370v274h-23h-23v-274v-274h23h23v274z" />
    <glyph glyph-name="asciicircum" unicode="^" 
d="M335 578l15.001 -0.000976562c10.667 -2 19.667 -7 27 -15c3.33301 -2.66699 5.66602 -5.33398 6.99902 -8.00098l188 -363c4.66699 -9.33301 6.66699 -19 6 -29c-2.66699 -20.667 -14 -34 -34 -40l-8 -2c-8.66699 -1.33301 -17.334 0.333984 -26.001 5.00098
c-5.33301 2 -9.66602 5 -12.999 9c-2.66699 2.66699 -23.334 33 -62.001 91l-75 113l-18 25l-75 -112c-50 -75.333 -76.333 -114.333 -79 -117c-10 -10 -23 -14.667 -39 -14c-20 2.66699 -33.333 13.334 -40 32.001c-1.33301 4 -2 8.66699 -2 14l2 17
c0.666992 2 1.66699 4 3 6l191 367c4.66699 7.33301 10.334 12.666 17.001 15.999c5.33301 2.66699 10.333 4.33398 15 5.00098z" />
    <glyph glyph-name="underscore" unicode="_" 
d="M147 -1c2 0.666992 66.999 0.998047 194.999 0.998047c132 0 200.667 -1 206 -3c12 -4.66699 20.667 -13 26 -25c8.66699 -18.667 6 -35.667 -8 -51c-7.33301 -8.66699 -16.666 -14 -27.999 -16l-198 -1l-194 1l-4 1c-14.667 4.66699 -25 13.334 -31 26.001
c-4 8 -5.33301 16.667 -4 26c0.666992 4.66699 2 9.33398 4 14.001c6.66699 15.333 18.667 24.333 36 27z" />
    <glyph glyph-name="grave" unicode="`" 
d="M194 739c2 0.666992 20.002 0.999023 54.002 0.999023c36.667 0 58 -1 64 -3c5.33301 -2 10.666 -5.33301 15.999 -10c2.66699 -2.66699 35.667 -44.667 99 -126c62.667 -80.667 95 -122 97 -124l4 -8c6 -15.333 4.66699 -30 -4 -44l-11 -12
c-2.66699 -2 -5.33398 -3.66699 -8.00098 -5c-6.66699 -3.33301 -14 -5 -22 -5c-10 0 -19 3 -27 9c-2.66699 1.33301 -51.334 42.666 -146.001 123.999s-143.334 123.333 -146.001 126c-8.66699 10.667 -12 23.334 -10 38.001c0.666992 4.66699 2.33398 9 5.00098 13
c6.66699 14.667 18.334 23.334 35.001 26.001z" />
    <glyph glyph-name="a" unicode="a" 
d="M242 538h100c67.333 0 106 -1.33301 116 -4c44 -10.667 75.667 -36.667 95 -78c6.66699 -14.667 11 -29.667 13 -45c0 -4 1.66699 -46.667 5 -128l6 -179l1 -62c-1.33301 -11.333 -6.33301 -21 -15 -29c-16.667 -16 -35 -18.333 -55 -7c-12 6.66699 -20 17 -24 31
c-0.666992 2.66699 -1 4.66699 -1 6v3l-35 -20c-26.667 -15.333 -42.334 -23.666 -47.001 -24.999c-2.66699 -0.666992 -31 -1 -85 -1c-57.333 0 -91.333 1.33301 -102 4c-26 6.66699 -48.333 19.667 -67 39c-22 22.667 -35 50 -39 82c-0.666992 6 -1 20.667 -1 44
s0.333008 38 1 44c4 31.333 17 58.333 39 81c21.333 22.667 48 36.667 80 42l8 1h105h105l8 -1c5.33301 -1.33301 10 -2.33301 14 -3l6 -1l-1 34c-1.33301 22.667 -2 35.667 -2 39c-3.33301 17.333 -13.666 29 -30.999 35l-6 2l-97 1c-66 0 -102.333 1.66699 -109 5
c-12 6 -20.333 16 -25 30c-0.666992 2.66699 -1 7 -1 13c0 5.33301 0.333008 9.66602 1 12.999c2 6 5 11.667 9 17c8 9.33301 18.333 15 31 17zM446 239l-5.99805 2h-98h-101c-2 -0.666992 -4.66699 -1.33398 -8 -2.00098c-14.667 -5.33301 -24.334 -15.666 -29.001 -30.999
l-1 -5v-34v-35l1 -4c5.33301 -16.667 16 -27.667 32 -33c2.66699 -0.666992 26.667 -1 72 -1h69l51 29l51 30l-1 24c-0.666992 16 -1.33398 25.667 -2.00098 29c-2.66699 9.33301 -7.66699 17 -15 23c-4.66699 3.33301 -9.66699 6 -15 8z" />
    <glyph glyph-name="b" unicode="b" 
d="M146 739l21.001 -1l9 -3c9.33301 -4.66699 16.333 -12 21 -22c3.33301 -6 5 -20.333 5 -43v-83l1 -113l19 16c16 14 27.333 23.333 34 28c14 8 28.667 13.667 44 17c10.667 2.66699 32.667 4 66 4s55 -1.33301 65 -4c20.667 -4 39.667 -12.667 57 -26
c20.667 -15.333 37.667 -30 51 -44c17.333 -18 29 -39 35 -63c3.33301 -11.333 5 -41.333 5 -90v-40l-1 -118c-4 -31.333 -16.667 -58 -38 -80c-8 -8 -24 -22 -48 -42c-21.333 -17.333 -46 -27.666 -74 -30.999h-103c-16.667 2 -32.334 6.66699 -47.001 14
c-11.333 5.33301 -28.666 18 -51.999 38l-13 11l-1 -12c0 -10.667 -1.66699 -19 -5 -25c-4.66699 -10 -11.667 -17.333 -21 -22c-9.33301 -4 -18.333 -5.66699 -27 -5c-3.33301 0.666992 -7 1.66699 -11 3c-6 2 -11.667 5.66699 -17 11c-7.33301 7.33301 -12 16 -14 26v660
c2 9.33301 6.66699 17.666 14 24.999s15.666 12 24.999 14zM414.001 441c-2.66699 0.666992 -18 1.33203 -46 1.99902l-45 -1c-7.33301 -1.33301 -13.666 -4 -18.999 -8c-2 -1.33301 -17.333 -14.333 -46 -39c-28.667 -24 -44 -37.333 -46 -40
c-3.33301 -4.66699 -6 -10 -8 -16l-1 -4v-65c0 -43.333 0.333008 -66.333 1 -69c1.33301 -6.66699 4 -12.667 8 -18c2 -2 17.333 -15.333 46 -40c29.333 -24.667 44.666 -37.667 45.999 -39c4 -2.66699 8.66699 -5 14 -7c3.33301 -0.666992 19.333 -1 48 -1h44l5 1
c6.66699 2 18 10 34 24c18 15.333 28.667 27.333 32 36l2 6v106c0 70 -0.333008 106.333 -1 109c-2 6 -4.66699 11.333 -8 16c-2 2.66699 -9.33301 9.33398 -22 20.001s-20 17 -22 19c-4.66699 4 -10 6.66699 -16 8z" />
    <glyph glyph-name="c" unicode="c" 
d="M314 538l224.998 0.000976562c20.667 -4 33.334 -16 38.001 -36c0.666992 -4 1 -7.66699 1 -11c0 -20 -9.66699 -34.667 -29 -44c-5.33301 -2.66699 -30.333 -4 -75 -4h-44l-108 -1l-4 -1c-5.33301 -1.33301 -10 -3.66602 -14 -6.99902
c-2 -1.33301 -17.333 -14.333 -46 -39c-28.667 -24 -44 -37.333 -46 -40c-3.33301 -4.66699 -6 -10 -8 -16l-1 -4v-65c0 -43.333 0.333008 -66.333 1 -69c1.33301 -6.66699 4 -12.667 8 -18c2 -2 17.333 -15.333 46 -40s44 -37.667 46 -39c4 -2.66699 8.66699 -5 14 -7
c2.66699 -0.666992 40 -1 112 -1c74 -0.666992 113.667 -2 119 -4c18.667 -7.33301 28.334 -22 29.001 -44c0 -20.667 -9.33301 -35.334 -28 -44.001c-3.33301 -1.33301 -7 -2.33301 -11 -3h-224c-26 2.66699 -49 11.667 -69 27l-97 83c-19.333 18.667 -32 41 -38 67
c-2.66699 10.667 -4 40 -4 88l1 78c4 31.333 16.667 58.333 38 81l99 85c20 15.333 43 24.666 69 27.999z" />
    <glyph glyph-name="d" unicode="d" 
d="M522 739l20.9971 -1.00098c6.66699 -1.33301 12.667 -4.33301 18 -9c8 -6.66699 13.667 -15 17 -25c0.666992 -2.66699 1 -114 1 -334s-0.333008 -331.333 -1 -334c-1.33301 -2.66699 -2.66602 -5.66699 -3.99902 -9c-4.66699 -10 -12 -17.333 -22 -22
c-8.66699 -4 -17.667 -5.66699 -27 -5c-3.33301 0.666992 -6.66602 1.66699 -9.99902 3c-6 2 -11.667 5.66699 -17 11c-10 10 -15 23.333 -15 40v10l-19 -15c-12.667 -10.667 -20 -17 -22 -19c-20.667 -16 -44.667 -25.667 -72 -29h-102c-27.333 3.33301 -51.333 13 -72 29
c-22 17.333 -38.667 32 -50 44c-22 22.667 -35 50.334 -39 83.001l1 225c4 32.667 16.667 60.334 38 83.001c11.333 12 28 26.667 50 44c17.333 13.333 36.333 22 57 26c10.667 2.66699 32.667 4 66 4c29.333 0 47 -0.666992 53 -2c26 -3.33301 49 -12.333 69 -27
c3.33301 -2.66699 11 -9.33398 23 -20.001l19 -16v113c0 75.333 0.333008 114 1 116c3.33301 9.33301 8.33301 17 15 23c6.66699 6.66699 14.334 11 23.001 13zM362.997 441.999l-89.001 -0.00195312c-8 -1.33301 -20.667 -9.66602 -38 -24.999c-16 -14 -25.667 -24 -29 -30
c-2.66699 -6 -4 -22.333 -4 -49v-69c0 -72.667 1.33301 -111.667 4 -117c3.33301 -6.66699 13 -16.667 29 -30c16.667 -14.667 28.334 -23 35.001 -25l5 -1h43c31.333 0 50 1.66699 56 5c4 1.33301 17.333 12 40 32l43 36c12 10.667 19.667 20.334 23 29.001l2 5v66v66l-2 4
c-2 7.33301 -5 13.333 -9 18l-92 78c-5.33301 4 -11 6.33301 -17 7z" />
    <glyph glyph-name="e" unicode="e" 
d="M267 538h75.001c49.333 0.666992 77.666 0 84.999 -2c1.33301 0 3.33301 -0.333008 6 -1c22 -4.66699 41.667 -14 59 -28c24 -20 39.667 -34 47 -42c19.333 -20 31.666 -43.333 36.999 -70c2 -10 3 -37 3 -81v-7c0 -46 -1.66699 -72.333 -5 -79s-7.66602 -12 -12.999 -16
c-4.66699 -4 -10.667 -7 -18 -9c-2.66699 -0.666992 -60 -1.33398 -172 -2.00098h-169l1 -19c0 -14.667 1.33301 -24.667 4 -30c3.33301 -6.66699 13 -16.667 29 -30c16 -14 27.333 -22.333 34 -25l5 -1h132c89.333 -0.666992 136.666 -2 141.999 -4
c18.667 -7.33301 28.334 -22 29.001 -44c0 -21.333 -9.66699 -36 -29 -44l-10 -3h-271c-27.333 3.33301 -51.333 13 -72 29c-22 17.333 -38.667 32 -50 44c-22 22.667 -34.667 50.334 -38 83.001c-0.666992 4.66699 -1 42.334 -1 113.001c0 70 0.333008 108 1 114
c4 31.333 16.667 58.333 38 81c8 8 24 22 48 42c20.667 17.333 45 27.666 73 30.999zM415.001 441l-4.00098 1l-66 1c-46 0 -71.667 -1 -77 -3s-15.666 -9.33301 -30.999 -22c-13.333 -11.333 -21.333 -18.333 -24 -21c-3.33301 -4.66699 -6 -10 -8 -16l-2 -5v-40l-1 -39
h141h140v39c0 28 -1.66699 45.333 -5 52c-2 3.33301 -4 6.33301 -6 9s-9.66699 9.66699 -23 21c-16 13.333 -27.333 21 -34 23z" />
    <glyph glyph-name="f" unicode="f" 
d="M379 739c2 0.666992 24.3311 1.00098 66.998 1.00098c46 0 72 -1 78 -3c5.33301 -2 10.333 -5.33301 15 -10c8 -8 13 -17.333 15 -28v-12c-1.33301 -11.333 -6 -21 -14 -29c-5.33301 -5.33301 -10.666 -9 -15.999 -11c-6 -2 -31 -3 -75 -3
c-40.667 0 -62.667 -0.333008 -66 -1c-26.667 -3.33301 -45.667 -17 -57 -41l-3 -7c-2 -7.33301 -3.33301 -19 -4 -35v-21h49c32.667 0 50.334 -0.333008 53.001 -1c20.667 -4 33.334 -16 38.001 -36c0.666992 -4 1 -7.66699 1 -11c0 -20.667 -9.33301 -35.334 -28 -44.001
c-3.33301 -1.33301 -7 -2.33301 -11 -3c-2.66699 -0.666992 -20.334 -1 -53.001 -1h-49v-202c0 -134.667 -0.333008 -203 -1 -205c-2 -7.33301 -5.33301 -13.333 -10 -18c-4 -5.33301 -9.33301 -9.66602 -16 -12.999c-8.66699 -4 -17.667 -5.66699 -27 -5
c-3.33301 0.666992 -6.66602 1.66699 -9.99902 3c-6 2 -11.667 5.66699 -17 11c-5.33301 6 -9 11.667 -11 17c-2.66699 6 -4 53.667 -4 143c0 -20 0 3 0 69v200h-27c-20 0 -33.333 1.66699 -40 5c-12.667 6 -21 16 -25 30l-1 21c0.666992 1.33301 1 2.66602 1 3.99902
c4 14 12.333 24 25 30c6.66699 3.33301 20 5 40 5l27 1l1 24c0 16 0.333008 26.667 1 32c4 24 12 45.667 24 65c14 22 32 40 54 54c23.333 14.667 48.666 23 75.999 25z" />
    <glyph glyph-name="g" unicode="g" 
d="M267 538h50.999l54 -1c26 -3.33301 49 -12.333 69 -27c3.33301 -2.66699 11 -9.33398 23 -20.001l19 -16v12c0.666992 9.33301 2 17 4 23c3.33301 9.33301 10 17 20 23c5.33301 3.33301 11.333 5.33301 18 6s13.334 0 20.001 -2c3.33301 -0.666992 6.66602 -2 9.99902 -4
c7.33301 -4 13 -9.66699 17 -17l4 -8c2 -5.33301 3 -59.333 3 -162c0 2.66699 0 -36.333 0 -117c0 -177.333 -0.333008 -269 -1 -275c-4 -31.333 -16.667 -58 -38 -80c-8 -8.66699 -24 -22.667 -48 -42c-22 -18 -47.667 -28.667 -77 -32h-114h-108l-4 1
c-22 10 -33.667 25.667 -35 47c0 21.333 10.333 36 31 44l4 2l4 1l109 1h109l4 1c6.66699 2 18 10 34 24c18 14.667 28.667 26.667 32 36l2 6v71l-1 71l-18 -15c-16 -13.333 -26.333 -21.666 -31 -24.999c-18.667 -12 -39.667 -19.667 -63 -23h-102
c-27.333 3.33301 -51.333 13 -72 29c-22 17.333 -38.667 32 -50 44c-17.333 18 -29 39.333 -35 64c-2.66699 10.667 -4 41.334 -4 92.001v16v94c3.33301 33.333 16.333 61.666 39 84.999c11.333 12 28 26.667 50 44c20.667 16 44.334 25.667 71.001 29zM362.999 442
l-89 -0.00195312c-8 -1.33301 -20.667 -9.66602 -38 -24.999c-16 -14 -25.667 -24 -29 -30c-2.66699 -6 -4 -22.333 -4 -49v-49c0 -58.667 1.33301 -91 4 -97c3.33301 -6 13 -16 29 -30c16.667 -14 28.334 -22 35.001 -24l5 -2h43c31.333 0 50.333 1.66699 57 5
c3.33301 2 15.666 12 36.999 30l44 38c12.667 10.667 20.667 20.334 24 29.001l2 6v45v46l-2 4c-2 7.33301 -5 13.333 -9 18l-92 78c-5.33301 4 -11 6.33301 -17 7z" />
    <glyph glyph-name="h" unicode="h" 
d="M146 739l21 -0.996094l9 -3c9.33301 -4.66699 16.333 -12 21 -22c3.33301 -6 5 -20.333 5 -43v-91l1 -121l47 30c32 20.667 51 32.667 57 36c14.667 7.33301 30.667 12 48 14l89 -1h1c32 -5.33301 59 -19.333 81 -42c22.667 -23.333 36 -51.333 40 -84l12 -361l-1 -14
c-5.33301 -18.667 -17.333 -30.334 -36 -35.001c-4 -0.666992 -8.33301 -1 -13 -1c-22 1.33301 -36.667 13.666 -44 36.999c-0.666992 2.66699 -3 64 -7 184c-4 119.333 -6.33301 180.666 -7 183.999c-3.33301 17.333 -13.666 29 -30.999 35l-6 2h-35
c-26 0 -42 -1.33301 -48 -4c-2.66699 -1.33301 -28 -17.333 -76 -48l-71 -46l-1 -152c0 -104 -1.66699 -159 -5 -165c-4.66699 -10 -11.667 -17.333 -21 -22c-9.33301 -4 -18.333 -5.66699 -27 -5c-3.33301 0.666992 -7 1.66699 -11 3c-6 2 -11.667 5.66699 -17 11
c-7.33301 7.33301 -12 16 -14 26v660c2 9.33301 6.66699 17.666 14 24.999s15.666 12 24.999 14z" />
    <glyph glyph-name="i" unicode="i" 
d="M194 538l80.0039 0.000976562c53.333 0 83.333 -1.66699 90 -5c6 -2.66699 11.333 -6.66699 16 -12c4 -5.33301 7 -11.333 9 -18c0.666992 -2.66699 1 -71.334 1 -206.001v-201h51l51 -1l4 -1c14 -4 24 -12.333 30 -25c3.33301 -6 5 -13 5 -21s-1.66699 -15 -5 -21
c-6 -12.667 -16 -21 -30 -25l-5 -2h-149h-148l-5 2c-20.667 10 -32.334 25.333 -35.001 46c0 21.333 10.333 36.333 31 45c1.33301 0 2.66602 0.333008 3.99902 1l4 1l51 1h51v173v174h-51h-51l-4 2c-20.667 6 -32.334 19.333 -35.001 40
c-0.666992 5.33301 -0.333984 11 0.999023 17c4.66699 19.333 17.667 31.333 39 36zM287.004 779.001l34.001 1.00195c22 0 36.333 -1.66699 43 -5c9.33301 -4.66699 16.333 -12 21 -22c3.33301 -6.66699 5 -20.334 5 -41.001s-1.66699 -34.334 -5 -41.001
c-4.66699 -10 -11.667 -17.333 -21 -22c-6.66699 -3.33301 -20.667 -5 -42 -5l-38 2c-1.33301 0 -3 0.333008 -5 1c-6 2 -11.667 5.66699 -17 11c-5.33301 6 -9 11.667 -11 17c-2 6 -3 18.333 -3 37s1 31 3 37s5.66699 11.667 11 17c7.33301 6.66699 15.666 11 24.999 13z
" />
    <glyph glyph-name="j" unicode="j" 
d="M289 538l102.003 0.000976562c69.333 0 107.333 -1.66699 114 -5c12 -6 20.333 -16 25 -30c0.666992 -2.66699 1 -98.334 1 -287.001l-1 -293c-4 -31.333 -17 -58.333 -39 -81c-21.333 -22 -47.333 -35.667 -78 -41l-8 -2h-58l-73 1
c-1.33301 0.666992 -3.33301 1.33398 -6 2.00098c-18 3.33301 -34.667 10 -50 20c-34 22.667 -55 53.334 -63 92.001c-2 9.33301 -2 17 0 23c0.666992 4 2 8 4 12s5 8 9 12s7.66699 6.66699 11 8c7.33301 4 14.666 6 21.999 6c6.66699 0 12.667 -1 18 -3
c3.33301 -1.33301 6.66602 -3.33301 9.99902 -6c10 -6.66699 16.667 -18 20 -34c4.66699 -18 16 -30 34 -36l5 -1h55h55l6 2c5.33301 2 10.333 4.66699 15 8c6.66699 5.33301 11.667 13 15 23l1 4v255l1 256h-75c-51.333 0 -80.333 1.66699 -87 5c-12.667 6 -21 16 -25 30
l-1 21c0.666992 1.33301 1 2.66602 1 3.99902c3.33301 10 8.66602 18.333 15.999 25c7.33301 5.33301 15.333 8.66602 24 9.99902zM428.003 779.001l34.001 1.00195c22 0 36.333 -1.66699 43 -5c9.33301 -4.66699 16.333 -12 21 -22c3.33301 -6.66699 5 -20.334 5 -41.001
s-1.66699 -34.334 -5 -41.001c-4.66699 -10 -11.667 -17.333 -21 -22c-6.66699 -3.33301 -20.667 -5 -42 -5l-38 2l-5 1c-6 2 -11.667 5.66699 -17 11c-5.33301 6 -9 11.667 -11 17c-2 6 -3 18.333 -3 37s1 31 3 37s5.66699 11.667 11 17
c7.33301 6.66699 15.666 11 24.999 13z" />
    <glyph glyph-name="k" unicode="k" 
d="M146 739l20.999 -0.99707c6.66699 -1.33301 12.667 -4.33301 18 -9c7.33301 -6.66699 12.666 -15 15.999 -25c0.666992 -2.66699 1 -68.334 1 -197.001l1 -194l124 107c83.333 71.333 126 107.666 128 108.999c4.66699 3.33301 10.334 6 17.001 8l21 1
c0.666992 -0.666992 1.33398 -1 2.00098 -1c7.33301 -2 13.333 -5 18 -9c16 -12.667 21.667 -29 17 -49c-2 -7.33301 -5.66699 -14 -11 -20c-1.33301 -2 -34.666 -30.667 -99.999 -86l-97 -84l118 -101c79.333 -67.333 120.333 -102.333 123 -105c10 -9.33301 15 -21 15 -35
c0 -4.66699 -0.333008 -8.66699 -1 -12c-5.33301 -20 -18 -31.667 -38 -35c-14 -2.66699 -26.333 0.333008 -37 9l-252 215l-2 2l-22 -20l-23 -20l-1 -74c0 -51.333 -1.66699 -80 -5 -86c-4.66699 -10 -11.667 -17.333 -21 -22c-9.33301 -4 -18.333 -5.66699 -27 -5
c-3.33301 0.666992 -7 1.66699 -11 3c-6 2 -11.667 5.66699 -17 11c-7.33301 7.33301 -12 16 -14 26v660c2 9.33301 6.66699 17.666 14 24.999s15.666 12 24.999 14z" />
    <glyph glyph-name="l" unicode="l" 
d="M194 739l80.0039 1.00098c53.333 -0.666992 83.333 -2.33398 90 -5.00098c12.667 -6.66699 21 -17 25 -31c0.666992 -2.66699 1 -104.667 1 -306v-302h51l51 -1l4 -1c14 -4 24 -12.333 30 -25c3.33301 -6 5 -13 5 -21s-1.66699 -15 -5 -21c-6 -12.667 -16 -21 -30 -25
l-5 -2h-149h-148l-5 2c-20.667 10 -32.334 25.333 -35.001 46c0 21.333 10.333 36.333 31 45c1.33301 0 2.66602 0.333008 3.99902 1l4 1l51 1h51v274v274h-51h-51l-4 2c-20.667 6 -32.334 19.333 -35.001 40c-0.666992 6 -0.333984 11.667 0.999023 17
c4.66699 19.333 17.667 31.333 39 36z" />
    <glyph glyph-name="m" unicode="m" 
d="M138 538c7.33301 1.33301 14.3359 0.998047 21.0029 -1.00195c4.66699 -1.33301 8.66699 -3 12 -5c10 -6 16.667 -13.667 20 -23l1 -3l5 3c18 16 39 25.667 63 29c20.667 2.66699 40.667 -0.333008 60 -9c10 -4 19.333 -9.66699 28 -17c6 -4.66699 11.333 -10 16 -16
l2 -3l11 9c10 9.33301 17.333 15.333 22 18c21.333 14 44.333 20 69 18h6c24 -3.33301 45 -13.666 63 -30.999c20 -19.333 31.667 -43 35 -71l14 -391c-0.666992 -6 -2.33398 -12 -5.00098 -18c-4.66699 -10 -12 -17.333 -22 -22
c-5.33301 -2.66699 -11.333 -4.33398 -18 -5.00098l-18 3c-3.33301 0.666992 -6.33301 2 -9 4c-7.33301 4 -13 9.66699 -17 17c-2.66699 4.66699 -4.66699 10 -6 16c-0.666992 2.66699 -3 68 -7 196c-4.66699 127.333 -7.33398 192 -8.00098 194
c-1.33301 4.66699 -4.33301 8.33398 -9 11.001l-7 2c-2.66699 -0.666992 -4.66699 -1.33398 -6 -2.00098c-2 -0.666992 -13 -9.66699 -33 -27l-30 -26l-1 -174l-1 -178c-2 -7.33301 -5 -13.333 -9 -18c-4.66699 -5.33301 -10 -9.66602 -16 -12.999
c-9.33301 -4 -18.333 -5.66699 -27 -5c-3.33301 0.666992 -7 1.66699 -11 3c-5.33301 2 -10.666 5.33301 -15.999 10c-6.66699 6 -11.334 14 -14.001 24c-0.666992 2 -1 67.667 -1 197l-1 193l-1 4c-2.66699 4.66699 -6 8 -10 10c-2.66699 0.666992 -5.66699 1 -9 1
c-4 0 -7 -0.666992 -9 -2c-2.66699 -1.33301 -15 -11.666 -37 -30.999l-33 -28v-171c-0.666992 -114 -1.33398 -172 -2.00098 -174c-2 -7.33301 -5 -13.333 -9 -18c-4.66699 -5.33301 -10 -9.66602 -16 -12.999c-9.33301 -4 -18.333 -5.66699 -27 -5
c-3.33301 0.666992 -6.66602 1.66699 -9.99902 3c-6 2 -12 5.66699 -18 11c-7.33301 7.33301 -11.666 16 -12.999 26v459c1.33301 9.33301 5.66602 17.666 12.999 24.999s15.666 12 24.999 14z" />
    <glyph glyph-name="n" unicode="n" 
d="M146 538c6.66699 1.33301 13.667 1.00391 21 -0.996094c4 -1.33301 8 -3 12 -5c9.33301 -6 16 -13.667 20 -23c2 -6 3 -16.333 3 -31l1 -20l47 30c32 20.667 51 32.667 57 36c14.667 7.33301 30.667 12 48 14l89 -1h1c32 -5.33301 59 -19.333 81 -42
c22.667 -23.333 36 -51.333 40 -84l12 -361l-1 -14c-5.33301 -18.667 -17.333 -30.334 -36 -35.001c-4 -0.666992 -8.33301 -1 -13 -1c-19.333 1.33301 -33 10.666 -41 27.999c-2.66699 6 -4.66699 34 -6 84c-0.666992 8 -2 44.333 -4 109
c-4 119.333 -6.33301 180.666 -7 183.999c-3.33301 17.333 -13.666 29 -30.999 35l-6 2h-35c-26 0 -42 -1.33301 -48 -4c-2.66699 -1.33301 -28 -17.333 -76 -48l-71 -46l-1 -152c0 -104 -1.66699 -159 -5 -165c-4.66699 -10 -11.667 -17.333 -21 -22
c-9.33301 -4 -18.333 -5.66699 -27 -5c-3.33301 0.666992 -7 1.66699 -11 3c-6 2 -11.667 5.66699 -17 11c-7.33301 7.33301 -12 16 -14 26v459c2 9.33301 6.66699 17.666 14 24.999s15.666 12 24.999 14z" />
    <glyph glyph-name="o" unicode="o" 
d="M267 538l78.002 -0.00488281c48 0 74 -0.333008 78 -1c10 -1.33301 19.333 -3.66602 28 -6.99902c15.333 -6 28.666 -13.333 39.999 -22c22.667 -19.333 37.667 -32.666 45 -39.999c24 -23.333 38 -52 42 -86c0.666992 -5.33301 1 -43 1 -113
c0 -70.667 -0.333008 -109 -1 -115c-4.66699 -32.667 -18.667 -60.667 -42 -84c-7.33301 -7.33301 -22.333 -20.333 -45 -39c-16.667 -13.333 -36.334 -22.666 -59.001 -27.999c-10 -2 -39.667 -3 -89 -3s-79.333 1 -90 3c-20.667 4.66699 -39.667 13.667 -57 27
c-22 17.333 -38.667 32 -50 44c-22 22.667 -34.667 50.334 -38 83.001c-0.666992 4.66699 -1 42.334 -1 113.001c0 70 0.333008 108 1 114c4 31.333 16.667 58.333 38 81c12.667 13.333 29.667 28 51 44c20 15.333 43.333 25 70 29zM414.002 440.995
c-2 0.666992 -25.334 1.33203 -70.001 1.99902c-46 0 -71.333 -1 -76 -3c-5.33301 -2 -10 -4.33301 -14 -7l-21 -19c-16 -13.333 -25.333 -24.333 -28 -33l-2 -5v-106c0 -73.333 1.33301 -112.666 4 -117.999c3.33301 -6.66699 13 -16.667 29 -30c14 -12 22.667 -19 26 -21
c6.66699 -3.33301 21.334 -5 44.001 -5h37c46.667 0 72.667 1.33301 78 4c4.66699 2 14.667 9.66699 30 23c16.667 14 26.667 25.333 30 34l2 6v106c0 70 -0.333008 106.333 -1 109c-2 6.66699 -5 12.667 -9 18l-45 39c-4 2.66699 -8.66699 4.66699 -14 6z" />
    <glyph glyph-name="p" unicode="p" 
d="M143 557l19.999 0.996094c0.666992 0 1.66699 -0.333008 3 -1c18 -4 29.667 -15.333 35 -34c0.666992 -2.66699 1 -9.66699 1 -21l1 -17l19 20c12.667 12.667 20.667 20.334 24 23.001c22.667 17.333 48 27.333 76 30l53 -1c21.333 -3.33301 40.333 -10.333 57 -21
c6 -4.66699 16 -13 30 -25c47.333 -40.667 73 -63 77 -67c20.667 -21.333 33.667 -47.333 39 -78c0.666992 -4.66699 1 -37 1 -97v-90l-2 -8c-5.33301 -30 -17.666 -55.333 -36.999 -76l-96 -83c-21.333 -17.333 -46 -27.666 -74 -30.999h-51
c-26.667 3.33301 -51 13.333 -73 30c-3.33301 2.66699 -11.333 10.334 -24 23.001l-20 19v-107c0 -74 -1.66699 -114 -5 -120c-4.66699 -10 -11.667 -17.333 -21 -22c-6.66699 -3.33301 -13.667 -5 -21 -5c-8 0 -15.333 1.66699 -22 5c-9.33301 4.66699 -16.333 12 -21 22
c-2 3.33301 -3.33301 6.33301 -4 9s-1 117.334 -1 344.001v339l1 5c5.33301 18.667 17 30 35 34zM366.999 460.996l-40.999 0.999023c-7.33301 -1.33301 -13.666 -4 -18.999 -8l-94 -94c-3.33301 -4.66699 -6 -9.66699 -8 -15l-2 -6v-67v-72
c1.33301 -6.66699 3.66602 -12.667 6.99902 -18l93 -94l2 -1c5.33301 -4.66699 11 -7.66699 17 -9c3.33301 -1.33301 11 -2 23 -2c11.333 0 18.666 0.666992 21.999 2c6.66699 2 21.667 12.667 45 32c2.66699 2.66699 7 6.66699 13 12c29.333 24.667 45 38.334 47 41.001
c4 4.66699 7 10.334 9 17.001l2 5v84c0 56 -0.333008 85.333 -1 88c-2 6 -4.66699 11.667 -8 17l-93 80c-4 3.33301 -8.66699 5.66602 -14 6.99902z" />
    <glyph glyph-name="q" unicode="q" 
d="M267 538l51.001 -0.000976562l54 -1c26 -3.33301 49 -12.333 69 -27c3.33301 -2.66699 11 -9.33398 23 -20.001l19 -16v12c0.666992 9.33301 2 17 4 23c3.33301 9.33301 10 17 20 23c5.33301 3.33301 11.333 5.33301 18 6s13.334 0 20.001 -2
c3.33301 -0.666992 6.66602 -2 9.99902 -4c7.33301 -4 13 -9.66699 17 -17c3.33301 -5.33301 5.33301 -11 6 -17l1 -332c0 -218.667 -0.333008 -329 -1 -331c-4.66699 -14.667 -13.334 -25 -26.001 -31c-6.66699 -3.33301 -13.667 -5 -21 -5s-14.333 1.66699 -21 5
c-10 4.66699 -17.333 12 -22 22c-2.66699 6 -4.33398 20 -5.00098 42v83v113l-19 -15c-12.667 -10.667 -20 -17 -22 -19c-20.667 -16 -44.667 -25.667 -72 -29h-102c-27.333 3.33301 -51.333 13 -72 29c-22 17.333 -38.667 32 -50 44c-22 22.667 -35 50.334 -39 83.001
l1 225c4 32.667 16.667 60.334 38 83.001c11.333 12 28 26.667 50 44c20.667 16 44.334 25.667 71.001 29zM363.001 441.999l-89.001 -0.00195312c-8 -1.33301 -20.667 -9.66602 -38 -24.999c-16 -14 -25.667 -24 -29 -30c-2.66699 -6 -4 -22.333 -4 -49v-69
c0 -72.667 1.33301 -111.667 4 -117c3.33301 -6.66699 13 -16.667 29 -30c16.667 -14.667 28.334 -23 35.001 -25l5 -1h43c31.333 0 50 1.66699 56 5c4 1.33301 17.333 12 40 32l43 36c12 10.667 19.667 20.334 23 29.001l2 5v66v66l-2 4c-2 7.33301 -5 13.333 -9 18l-92 78
c-5.33301 4 -11 6.33301 -17 7z" />
    <glyph glyph-name="r" unicode="r" 
d="M146 538c6.66699 1.33301 13.668 1.00098 21.001 -0.999023c4.66699 -1.33301 8.66699 -3 12 -5c6.66699 -4 12.334 -9.66699 17.001 -17c1.33301 -2.66699 2.33301 -5.33398 3 -8.00098c2 -5.33301 3 -19.666 3 -42.999c0 -20 0.333008 -30 1 -30l55 47
c36 31.333 55.667 48 59 50c4 2.66699 9 4.66699 15 6c2 0.666992 22 1 60 1c41.333 0 67.333 -1 78 -3c44 -10.667 75.667 -36.667 95 -78c6.66699 -13.333 11 -27.666 13 -42.999v-52v-1c-4 -20 -15.667 -32.333 -35 -37l-12 -2c-22 0 -37 10.333 -45 31
c-0.666992 1.33301 -1 2.66602 -1 3.99902c-0.666992 3.33301 -1.33398 12 -2.00098 26v22l-2 6c-2 5.33301 -4.66699 10.333 -8 15c-4 4.66699 -9.33301 8.66699 -16 12c-12.667 2.66699 -31 4 -55 4h-42l-79 -67l-79 -67v-134c0 -92 -1.66699 -141 -5 -147
c-4.66699 -10 -11.667 -17.333 -21 -22c-9.33301 -4 -18.333 -5.66699 -27 -5c-3.33301 0.666992 -7 1.66699 -11 3c-6 2 -11.667 5.66699 -17 11c-7.33301 7.33301 -12 16 -14 26v459c2 9.33301 6.66699 17.666 14 24.999s15.666 12 24.999 14z" />
    <glyph glyph-name="s" unicode="s" 
d="M225 538l231.997 0.00195312c35.333 -4 65 -18.667 89 -44c12 -12 19 -23 21 -33l1 -20c-0.666992 -1.33301 -1 -2.33301 -1 -3c-1.33301 -4 -2.66602 -7 -3.99902 -9c-8.66699 -18 -22.667 -26.667 -42 -26h-6c-13.333 2 -24.666 8.66699 -33.999 20
c-6.66699 8.66699 -15.334 14.667 -26.001 18l-5 1l-106 1l-110 -1c-8.66699 -2 -15.334 -7 -20.001 -15l-2 -9c0 -3.33301 0.666992 -6 2 -8c2 -6 5.33301 -10.333 10 -13c2 -1.33301 32 -15 90 -41c124.667 -54.667 190.667 -84.334 198 -89.001
c24.667 -16.667 42.667 -37.667 54 -63c10.667 -24.667 14.334 -49.334 11.001 -74.001c-0.666992 -6 -1.66699 -12 -3 -18c-11.333 -45.333 -38 -78 -80 -98c-10 -4.66699 -20.333 -8.33398 -31 -11.001c-10 -2 -51.667 -3 -125 -3c-68 0 -104.667 0.666992 -110 2
c-13.333 2 -28 6.33301 -44 13c-18.667 7.33301 -35.667 17 -51 29c-11.333 9.33301 -18.666 17.333 -21.999 24c-4 8 -5.33301 17 -4 27c0.666992 4.66699 2.33398 9.33398 5.00098 14.001c8 18 22 27 42 27h6c9.33301 -1.33301 19 -6 29 -14
c10 -8.66699 20.333 -15 31 -19c9.33301 -3.33301 17.333 -5.66602 24 -6.99902h101h96l5 1c14.667 4.66699 25 13.667 31 27c7.33301 13.333 7.66602 27 0.999023 41c-3.33301 8 -8.33301 14.667 -15 20c-2.66699 2 -5 3.33301 -7 4
c-2.66699 1.33301 -67.334 29.666 -194.001 84.999c-49.333 22 -75.666 34 -78.999 36c-11.333 5.33301 -22 13.333 -32 24c-19.333 19.333 -30.666 42.666 -33.999 69.999c-2.66699 20.667 0.333008 40.667 9 60c4.66699 10.667 10.667 20.334 18 29.001
c21.333 25.333 48.333 40.333 81 45z" />
    <glyph glyph-name="t" unicode="t" 
d="M239 699l21.998 -1.00098c2 -0.666992 5 -2 9 -4c9.33301 -4.66699 16.333 -11.667 21 -21c3.33301 -6.66699 5 -21.334 5 -44.001v-30v-60l98 -1h98l4 -1c14 -4.66699 24 -13 30 -25c3.33301 -6 5 -13 5 -21s-1.66699 -15.333 -5 -22c-6 -12 -16 -20.333 -30 -25l-4 -1
h-98h-98l1 -155v-155l2 -5c2.66699 -9.33301 7.33398 -16.666 14.001 -21.999c4.66699 -3.33301 9.66699 -6 15 -8l6 -2h55c39.333 0 62.333 1.66699 69 5c12.667 6.66699 21 17.334 25 32.001c2.66699 11.333 6.66699 20.333 12 27c10 11.333 23.667 16.666 41 15.999
c20.667 -2.66699 34 -13.667 40 -33c2.66699 -7.33301 3.33398 -14.333 2.00098 -21c-5.33301 -36.667 -22.666 -66.667 -51.999 -90c-18.667 -15.333 -39.334 -25 -62.001 -29c-10 -2 -34 -3 -72 -3h-7h-58l-8 2c-31.333 6 -57.333 19.667 -78 41c-22 22.667 -35 50 -39 82
c-0.666992 6 -1 60.333 -1 163v155h-28c-18 0 -28.333 0.333008 -31 1c-22 9.33301 -33.667 25 -35 47c0 22 11.667 37.333 35 46c2.66699 0.666992 13 1 31 1l28 1v60c0 42.667 1.66699 67.334 5 74.001c6.66699 14 17.667 22.667 33 26z" />
    <glyph glyph-name="u" unicode="u" 
d="M147 538l20.002 -1c17.333 -5.33301 28.666 -17 33.999 -35c0.666992 -3.33301 3 -64.666 7 -183.999c4 -120 6.33301 -181.667 7 -185c3.33301 -17.333 13.666 -29 30.999 -35l6 -2h35c26 0 41.667 1.33301 47 4c3.33301 1.33301 29 17.333 77 48l72 47v150
c0 102.667 1 156.667 3 162l4 8c4 7.33301 9.66699 13 17 17c5.33301 3.33301 11.333 5.33301 18 6s13.334 0 20.001 -2c3.33301 -0.666992 6.66602 -2 9.99902 -4c7.33301 -4 13 -9.66699 17 -17c3.33301 -5.33301 5.33301 -11 6 -17l1 -232
c0 -151.333 -0.333008 -228 -1 -230c-2.66699 -7.33301 -6 -13.333 -10 -18c-6.66699 -8.66699 -15 -14 -25 -16c-8 -2 -16 -2 -24 0l-12 5c-10 5.33301 -16.667 13 -20 23c-2 5.33301 -3.33301 15.666 -4 30.999v20l-48 -31c-38.667 -24.667 -63.667 -38.667 -75 -42
c-10 -3.33301 -20 -5.66602 -30 -6.99902h-89h-1c-32.667 6 -59.667 20 -81 42c-22.667 24 -36 52.333 -40 85l-12 360c0 8.66699 1.33301 16 4 22c6.66699 15.333 18.667 24.666 36 27.999z" />
    <glyph glyph-name="v" unicode="v" 
d="M146 538c6.66699 1.33301 13.666 1.00098 20.999 -0.999023c4.66699 -1.33301 8.66699 -3 12 -5c6.66699 -4 12.334 -9.66699 17.001 -17c1.33301 -2.66699 2.33301 -5.33398 3 -8.00098c2 -5.33301 3 -22 3 -50v-37l70 -160c46.667 -106.667 70.334 -160 71.001 -160
l70 160l70 160v37c0 28 1 44.667 3 50c2 6 6 11.667 12 17c5.33301 5.33301 11 9.33301 17 12c6.66699 2 13.667 2.66699 21 2c4 0 7.66699 -0.666992 11 -2c6 -2.66699 11.667 -6.66699 17 -12c6 -5.33301 10 -11 12 -17c2 -5.33301 3 -24.333 3 -57
s-1.33301 -52.334 -4 -59.001l-162 -369c-4.66699 -6.66699 -10 -11.667 -16 -15c-4.66699 -2.66699 -10 -4.66699 -16 -6h-76c-6 1.33301 -11.333 3.33301 -16 6c-6.66699 3.33301 -12 8.33301 -16 15l-162 369c-2.66699 6.66699 -4 26.334 -4 59.001s1 51.667 3 57
c2 6 5.66699 11.667 11 17c7.33301 7.33301 15.666 12 24.999 14z" />
    <glyph glyph-name="w" unicode="w" 
d="M136 538c10.667 2 21.3301 0.00195312 31.9971 -5.99805c5.33301 -2.66699 9.66602 -6.33398 12.999 -11.001c4.66699 -5.33301 8 -11.333 10 -18c0.666992 -2.66699 1 -7 1 -13c0.666992 -6 2.33398 -53 5.00098 -141l5 -132l15 -51l15 -51l31 54l32 53v56
c0 40 1 63 3 69c4.66699 11.333 12.334 19.666 23.001 24.999c7.33301 3.33301 14.333 5 21 5c7.33301 0 14.666 -1.66699 21.999 -5c10.667 -5.33301 18.334 -13.666 23.001 -24.999c2 -6 3 -29 3 -69v-56l31 -53l32 -54l15 51l15 51l5 132
c2.66699 88 4.33398 135 5.00098 141c0.666992 8.66699 2.33398 16 5.00098 22c4.66699 9.33301 12 16.666 22 21.999c12 6 24.333 6.33301 37 1c6.66699 -2 12.667 -6 18 -12c7.33301 -7.33301 11.666 -16 12.999 -26l-4 -145c-3.33301 -93.333 -5.33301 -142 -6 -146
c0 -4 -8.33301 -34 -25 -90c-16 -56 -25 -85.667 -27 -89c-6 -12.667 -16 -21 -30 -25c-2.66699 -1.33301 -13.667 -2 -33 -2l-33 1c-11.333 1.33301 -20.666 6.33301 -27.999 15c-3.33301 2.66699 -14 19.667 -32 51s-27.333 47 -28 47l-27 -47l-27 -47l-6 -6
c-5.33301 -5.33301 -11 -9 -17 -11s-19 -3 -39 -3h-4c-19.333 0 -30.333 0.666992 -33 2c-14 4 -24 12.333 -30 25c-2 3.33301 -11 33 -27 89c-16.667 56 -25 86 -25 90c-0.666992 4 -2.66699 52.667 -6 146c-3.33301 96.667 -4 148 -2 154c6 17.333 18.333 28 37 32z" />
    <glyph glyph-name="x" unicode="x" 
d="M157 538l18.9961 -1.00293c9.33301 -2.66699 17 -7 23 -13c2 -2 26.333 -31.333 73 -88c46.667 -56 70.334 -84 71.001 -84c0.666992 0.666992 24.334 29 71.001 85s70.667 85 72 87c4 4 9 7.33301 15 10c19.333 9.33301 37 6.33301 53 -9
c8.66699 -8.66699 13.334 -19 14.001 -31l-2 -18l-4 -8c-1.33301 -2.66699 -27.666 -35.334 -78.999 -98.001c-52 -62.667 -78 -94.334 -78 -95.001l81 -98c53.333 -64.667 81 -98.334 83 -101.001c9.33301 -12.667 12 -26.667 8 -42c-2.66699 -8 -7.33398 -15 -14.001 -21
c-12.667 -12 -27.667 -15.667 -45 -11l-16 8l-7 6c-2 2.66699 -28 34 -78 94l-74 90l-4 -3l-76 -93c-49.333 -59.333 -75 -90 -77 -92c-15.333 -14 -32.666 -16.333 -51.999 -7c-10.667 4.66699 -18.334 12.334 -23.001 23.001s-5.66699 21.334 -3 32.001
c1.33301 6 4 11.333 8 16c1.33301 2.66699 29 36.334 83 101.001l81 98c0 0.666992 -26 32.334 -78 95.001c-51.333 62.667 -77.666 95.334 -78.999 98.001c-4.66699 8 -6.66699 16.667 -6 26c0.666992 6.66699 2 12.667 4 18c7.33301 14.667 19.333 23.334 36 26.001z" />
    <glyph glyph-name="y" unicode="y" 
d="M146 538c6.66699 1.33301 13.667 1.00098 21 -0.999023c4.66699 -1.33301 8.66699 -3 12 -5c6.66699 -4 12.334 -9.66699 17.001 -17c1.33301 -2.66699 2.33301 -5.33398 3 -8.00098c2 -5.33301 3 -22 3 -50v-37l63 -142l62 -142h16h16l62 142l62 142v37
c0 28 1 44.667 3 50c2 6 6 11.667 12 17c5.33301 5.33301 11 9.33301 17 12c6.66699 2 13.667 2.66699 21 2c4 0 7.66699 -0.666992 11 -2c6 -2.66699 11.667 -6.66699 17 -12c6 -5.33301 10 -11 12 -17c2 -5.33301 3 -24.333 3 -57s-1.33301 -52.334 -4 -59.001l-250 -569
c-6 -9.33301 -14.333 -16 -25 -20c-5.33301 -2 -33.333 -3 -84 -3h-70l-4 1c-22 7.33301 -33.667 23 -35 47c0 22 11.667 37.333 35 46c2.66699 0.666992 21.667 1.33398 57 2.00098h54l31 72l32 73h-12c-14 0 -25 2.33301 -33 7c-7.33301 4 -13 9.66699 -17 17l-144 329
c-2 6 -3 25 -3 57c0 32.667 1 51.667 3 57c2 6 5.66699 11.667 11 17c7.33301 7.33301 15.666 12 24.999 14z" />
    <glyph glyph-name="enc-122" unicode="z" 
d="M170 538l186 0.000976562c122 0 184.333 -0.333008 187 -1c7.33301 -2 13.333 -5 18 -9c5.33301 -4.66699 9.66602 -10 12.999 -16c2.66699 -6.66699 4.33398 -19.667 5.00098 -39l-2 -35l-1 -4c-2 -5.33301 -5 -10.333 -9 -15l-169 -163l-166 -160h153
c102.667 -0.666992 155 -1.33398 157 -2.00098c8.66699 -2 15.667 -5.66699 21 -11c10 -10 15 -21.667 15 -35c0 -20.667 -9.33301 -35.334 -28 -44.001c-3.33301 -1.33301 -7 -2.33301 -11 -3h-393c-9.33301 2 -17.666 6.33301 -24.999 13c-7.33301 7.33301 -12 16 -14 26
v57c2 8.66699 5.66699 16 11 22c2 2.66699 58.667 57 170 163l166 160l-143 1h-142l-5 1c-20.667 6.66699 -32 20.334 -34 41.001c-0.666992 5.33301 -0.333984 11 0.999023 17c4 18 15.333 29.667 34 35c2 0.666992 3.66699 1 5 1z" />
    <glyph glyph-name="braceleft" unicode="{" 
d="M379 739c2.66699 0.666992 29.3311 1 79.998 1l80 -1c20.667 -4 33.334 -16 38.001 -36c0.666992 -3.33301 1 -7 1 -11c0 -20.667 -9.33301 -35.334 -28 -44.001c-3.33301 -1.33301 -7 -2.33301 -11 -3c-2.66699 -0.666992 -28 -1 -76 -1h-73v-93
c0 -66.667 -1 -105 -3 -115c-4.66699 -22 -14 -41.667 -28 -59l-5 -6l4 -6c10 -12.667 18 -26.667 24 -42c2.66699 -7.33301 5 -16.333 7 -27l1 -7v-97v-96h73c48 0 73.333 -0.333008 76 -1c20.667 -4 33.334 -16 38.001 -36c0.666992 -3.33301 1 -7 1 -11
c0 -21.333 -9.66699 -36 -29 -44l-10 -3l-80 -1c-53.333 0 -84 1 -92 3c-31.333 8 -53 27 -65 57c-2 3.33301 -3.33301 7 -4 11c-2 7.33301 -3 44.666 -3 111.999c-0.666992 68.667 -2.33398 106 -5.00098 112c-6.66699 12.667 -17 21.334 -31 26.001
c-2.66699 0.666992 -22 1 -58 1c-36.667 0.666992 -56.334 1.33398 -59.001 2.00098c-22 6.66699 -33.667 22 -35 46c0 22.667 11.667 38 35 46c2.66699 1.33301 22.334 2 59.001 2c38 0 60 1.66699 66 5c13.333 6 22 16.333 26 31c0.666992 2.66699 1.33398 37 2.00098 103
v99l1 6c5.33301 23.333 17 42.333 35 57c13.333 11.333 29.333 18 48 20z" />
    <glyph glyph-name="bar" unicode="|" 
d="M295 183v139h47h48v-141c0 -96.667 -1.66699 -148 -5 -154c-4.66699 -10 -11.667 -17.333 -21 -22c-9.33301 -4 -18.333 -5.66699 -27 -5c-3.33301 0.666992 -7 1.66699 -11 3c-6 2 -11.667 5.66699 -17 11c-5.33301 6 -9 11.667 -11 17c-2 6 -3 47.667 -3 125v27z
M334 739l21.001 -0.999023l9 -3c9.33301 -4.66699 16.333 -12 21 -22c3.33301 -6 5 -19.667 5 -41v-113v-141h-48h-47v139c0 95.333 1 146 3 152c2 5.33301 5.66699 10.666 11 15.999c7.33301 7.33301 15.666 12 24.999 14z" />
    <glyph glyph-name="braceright" unicode="}" 
d="M147 739c2 0.666992 28.0029 0.999023 78.0029 0.999023c54 0 85 -1 93 -3c31.333 -8 53 -27 65 -57c2 -4 3.33301 -7.66699 4 -11c2 -7.33301 3 -44.666 3 -111.999l1 -99l1 -5c4 -14 12.667 -24 26 -30c6 -3.33301 21 -5 45 -5h21c38 0 59.667 -1.33301 65 -4
c18.667 -7.33301 28.334 -22 29.001 -44c0 -20 -9.66699 -34.667 -29 -44c-5.33301 -2 -27 -3.33301 -65 -4c-38 0 -60 -1.66699 -66 -5c-10.667 -4.66699 -18.334 -12 -23.001 -22c-2.66699 -6 -4 -22.333 -4 -49l-1 -63v-100l-1 -6c-4 -16 -10.667 -30 -20 -42
c-14.667 -17.333 -33.334 -28.333 -56.001 -33l-7 -2h-79h-80l-5 2c-22 8.66699 -33.667 24 -35 46c0 22 11.667 37.333 35 46l4 1l74 1h75v93c0 62 0.333008 96.333 1 103c1.33301 11.333 3.66602 21.666 6.99902 30.999c6 16 14 30 24 42l4 6
c-0.666992 0 -2.33398 2 -5.00098 6c-14 17.333 -23.333 37 -28 59c-2 10 -3 48.333 -3 115v93h-75h-74l-4 2c-14.667 4 -25 12.667 -31 26c-4 8 -5.33301 16.667 -4 26c0.666992 4.66699 2 9.33398 4 14.001c6.66699 15.333 18.667 24.333 36 27z" />
    <glyph glyph-name="asciitilde" unicode="~" 
d="M234 739c16.667 2 33.001 0.664062 49.001 -4.00293c9.33301 -2 18 -5 26 -9c24 -12 43 -29 57 -51c11.333 -17.333 18.666 -36 21.999 -56c1.33301 -5.33301 2 -20.333 2 -45l1 -36l2 -6c4.66699 -14 13 -24 25 -30c6 -2.66699 12.667 -4 20 -4
c6 0.666992 12 2.33398 18 5.00098c10 4.66699 17.333 12.334 22 23.001c3.33301 6 5 21.667 5 47c0 -2 0 6.66699 0 26c0 42.667 1.66699 67.334 5 74.001c4.66699 9.33301 12 16.333 22 21c6.66699 3.33301 13.667 5 21 5l17 -3l4 -2c10 -4.66699 17.333 -11.667 22 -21
c3.33301 -6.66699 5 -21 5 -43v-34c0 -42.667 -0.666992 -66.667 -2 -72c-2.66699 -14 -6.66699 -27.333 -12 -40c-19.333 -39.333 -51 -65 -95 -77c-10 -2.66699 -20 -4 -30 -4c-42 -2 -78 13.667 -108 47c-16.667 18 -27.667 38.667 -33 62c-2.66699 10 -4 28.667 -4 56
l-1 37l-2 5c-4.66699 13.333 -13 23.333 -25 30c-6 2.66699 -12.667 4 -20 4c-18.667 -1.33301 -32 -10.333 -40 -27c-2.66699 -6.66699 -4 -22.667 -4 -48c0 2.66699 -0.333008 -6 -1 -26c0 -42.667 -1.66699 -67 -5 -73c-4.66699 -10 -11.667 -17.333 -21 -22
c-6.66699 -3.33301 -13.667 -5 -21 -5c-8 0 -15.333 1.66699 -22 5c-9.33301 4.66699 -16.333 12 -21 22c-3.33301 6 -5 19.667 -5 41v32l1 70c4 32 17 59.667 39 83c24 24.667 53 39 87 43z" />
    <glyph glyph-name="uni007F" 
d="M83 370v394h259h260v-394v-394h-260h-259v394z" />
    <glyph glyph-name="sterling" unicode="&#xa3;" 
d="M490 739l48.9961 0.000976562c20.667 -4 33.334 -16 38.001 -36l1 -11c0 -22 -10.667 -37 -32 -45l-4 -2c-2 -0.666992 -9.66699 -1 -23 -1c-14.667 -0.666992 -25 -2.33398 -31 -5.00098c-10 -4.66699 -17.667 -12 -23 -22
c-1.33301 -2.66699 -11.333 -36.334 -30 -101.001s-28 -97.334 -28 -98.001h64c42.667 0 65.334 -0.333008 68.001 -1c20.667 -4 33.334 -15.667 38.001 -35c0.666992 -4 1 -8 1 -12c0 -20.667 -9.33301 -35 -28 -43c-3.33301 -2 -7 -3.33301 -11 -4
c-2.66699 -0.666992 -30 -1 -82 -1h-79v-1c0 -0.666992 -11 -38.334 -33 -113.001l-33 -112h114c76.667 -0.666992 117.667 -2 123 -4c18.667 -7.33301 28.334 -22 29.001 -44c0 -21.333 -9.66699 -36 -29 -44l-11 -3l-198 -1h-194l-4 2c-22 6.66699 -33.667 22 -35 46
c0 22.667 11.667 38 35 46c2.66699 0.666992 15 1.33398 37 2.00098h34l32 113c22 74.667 33 112.334 33 113.001h-66l-66 1l-4 1c-22 6.66699 -33.667 22 -35 46c0 22.667 11.667 38 35 46l4 2h80h81l32 111c22 74 33.667 113 35 117c13.333 36 37 62.333 71 79
c14.667 6.66699 29.667 11.334 45 14.001z" />
    <glyph glyph-name="yen" unicode="&#xa5;" 
d="M147 739c6.66699 1.33301 13.666 0.99707 20.999 -1.00293c4 -1.33301 7.66699 -3 11 -5c6 -4 11 -9 15 -15c2 -2.66699 27.333 -45.667 76 -129l72 -124l2 2l72 123l74 126c11.333 19.333 27.666 27 48.999 23c9.33301 -2 17.333 -6 24 -12
c4.66699 -4.66699 8.33398 -9.66699 11.001 -15c4 -8 5.33301 -16.667 4 -26c-0.666992 -5.33301 -2 -10 -4 -14c-1.33301 -2.66699 -32.333 -55.667 -93 -159l-91 -156v-10v-10h73h76c20.667 -4 33.334 -16 38.001 -36c0.666992 -4 1 -8 1 -12
c0 -20 -9.33301 -34.333 -28 -43c-3.33301 -1.33301 -7 -2.66602 -11 -3.99902h-76h-73v-102c0 -69.333 -1.66699 -107 -5 -113c-4.66699 -10 -11.667 -17.333 -21 -22c-9.33301 -4 -18.333 -5.66699 -27 -5c-3.33301 0.666992 -7 1.66699 -11 3
c-6 2 -11.667 5.66699 -17 11c-5.33301 6 -9 11.667 -11 17c-2 6 -3 43.333 -3 112v99h-75h-74l-4 1c-22 6.66699 -33.667 22 -35 46c0 22.667 11.667 38.334 35 47.001l4 1h74h75v10v10l-91 156c-61.333 103.333 -92.333 156.333 -93 159c-4 8 -5.33301 16.667 -4 26
c0.666992 4.66699 2 9.33398 4 14.001c6.66699 15.333 18.667 24.333 36 27z" />
    <glyph glyph-name="brokenbar" unicode="&#xa6;" 
d="M295 476v572h47h48v-572v-571h-48h-47v571z" />
    <glyph glyph-name="uni00AD" unicode="&#xad;" 
d="M147 417c2 0.666992 66.999 0.99707 194.999 0.99707c132 0 200.667 -1 206 -3c12 -4.66699 20.667 -13 26 -25c8.66699 -18.667 6 -35.667 -8 -51c-7.33301 -8.66699 -16.666 -14 -27.999 -16l-198 -1l-194 1l-4 1c-14.667 4.66699 -25 13.334 -31 26.001
c-4 8.66699 -5.33301 17.334 -4 26.001c0.666992 4.66699 2 9.33398 4 14.001c6.66699 15.333 18.667 24.333 36 27z" />
    <glyph glyph-name="acute" unicode="&#xb4;" 
d="M289 739l55.001 0.000976562c38 0 60.333 -1.33301 67 -4c9.33301 -4.66699 16.333 -12 21 -22c3.33301 -6.66699 5 -13.667 5 -21c0 -5.33301 -8 -48.666 -24 -129.999c-16 -82 -24.333 -124.333 -25 -127c-2 -6 -5.66699 -11.667 -11 -17
c-8 -8.66699 -17.667 -13.667 -29 -15l-18 1c-1.33301 0.666992 -2.33301 1 -3 1c-6.66699 2.66699 -12.667 6.66699 -18 12c-6 5.33301 -10 11.333 -12 18c-0.666992 2.66699 -9 45 -25 127c-16 81.333 -24 124.666 -24 129.999l1 12c3.33301 10 8.66602 18.333 15.999 25
c7.33301 5.33301 15.333 8.66602 24 9.99902z" />
    <glyph glyph-name="periodcentered" unicode="&#xb7;" 
d="M263 236l81 1.00195c54 -0.666992 84 -2.33398 90 -5.00098c10 -4.66699 17.333 -12 22 -22c2.66699 -6.66699 4.33398 -21 5.00098 -43v-49c0 -54.667 -1.66699 -85 -5 -91c-4.66699 -10 -12 -17.333 -22 -22c-6.66699 -3.33301 -21.334 -5 -44.001 -5h-45
c-53.333 0 -83 1 -89 3s-11.667 5.66699 -17 11c-7.33301 7.33301 -12 16 -14 26v157c2 9.33301 6.66699 17.666 14 24.999c6.66699 7.33301 14.667 12 24 14z" />
    <glyph glyph-name="cedilla" unicode="&#xb8;" 
d="M240 336l104.001 1.00195c69.333 0 107.333 -1.66699 114 -5c9.33301 -4.66699 16.333 -11.667 21 -21c3.33301 -6.66699 5 -21 5 -43v-99c0 -88.667 -1.66699 -136 -5 -142c-4.66699 -10 -11.667 -17.333 -21 -22c-6.66699 -3.33301 -20.667 -5 -42 -5l-38 2
c-1.33301 0 -3 0.333008 -5 1c-6 2 -11.667 5.66699 -17 11c-5.33301 6 -9 11.667 -11 17c-2 6 -3 36.667 -3 92v78h-49c-34.667 0 -55 1 -61 3c-6 2.66699 -11.667 6.66699 -17 12s-9 10.666 -11 15.999c-2 6 -3 18.333 -3 37s1 31 3 37s5.66699 11.667 11 17
c7.33301 7.33301 15.666 11.666 24.999 12.999z" />
    <glyph glyph-name="questiondown" unicode="&#xbf;" 
d="M429 739c7.33301 1.33301 15.001 0.668945 23.001 -1.99805c4 -1.33301 7.66699 -3 11 -5l101 -86c6 -6 10.333 -13.333 13 -22l2 -5v-48v-48l-2 -5c-2 -6 -5 -11.667 -9 -17c-2 -2.66699 -47.667 -42.334 -137 -119.001l-134 -114l-1 -114
c0 -78.667 -1.66699 -121 -5 -127c-4.66699 -10 -11.667 -17.333 -21 -22c-9.33301 -4 -18.333 -5.66699 -27 -5c-3.33301 0.666992 -7 1.66699 -11 3c-6 2 -11.667 5.66699 -17 11c-7.33301 7.33301 -12 16 -14 26v258c2 9.33301 6.66699 17.666 14 24.999
c3.33301 3.33301 49 42.333 137 117l131 113v18v18l-11 10l-23 19l-12 11l-127 -108c-84.667 -72.667 -128 -109.667 -130 -111c-10 -6.66699 -21 -9 -33 -7c-4.66699 0.666992 -9.33398 2.33398 -14.001 5.00098c-17.333 8.66699 -26 22.667 -26 42c0 14 5 25.667 15 35
l285 244c6.66699 5.33301 14 8.66602 22 9.99902z" />
    <glyph glyph-name="Adieresis" unicode="&#xc4;" 
d="M335 578l15.001 0.000976562c10.667 -2 19.667 -7 27 -15c3.33301 -2.66699 5.66602 -5.33398 6.99902 -8.00098l193 -496l1 -20c0 -0.666992 -0.333008 -1.66699 -1 -3c-5.33301 -20 -18 -31.667 -38 -35c-7.33301 -1.33301 -14.333 -1 -21 1c-14 4 -24 12 -30 24
l-34 88l-3 6h-108h-109l-18 -46c-12 -30 -18.333 -46 -19 -48c-2.66699 -4.66699 -6 -9 -10 -13c-16.667 -16 -35.334 -18.333 -56.001 -7c-12 6.66699 -19.667 17 -23 31l-1 21h1l189 489c2 4 4 7.33301 6 10c4.66699 7.33301 10.334 12.666 17.001 15.999
c5.33301 2.66699 10.333 4.33398 15 5.00098zM378.001 307.001c-23.333 60 -35 90.333 -35 91s-2.33301 -4.33301 -7 -15l-29 -75l-36 -91l36 -1h71l36 1zM522.001 739.001l21.001 -1.00098c2.66699 -0.666992 5.66699 -1.66699 9 -3c10 -4.66699 17.333 -12 22 -22
c3.33301 -6.66699 5 -20.667 5 -42c0 2.66699 0 -2.66602 0 -15.999c0 -33.333 -1 -53.333 -3 -60c-4.66699 -13.333 -13.667 -22.666 -27 -27.999c-5.33301 -2 -11.333 -3 -18 -3c-8 0 -15 1.33301 -21 4c-14.667 7.33301 -23.334 19 -26.001 35v97
c2 9.33301 6.66699 17.666 14 24.999c6.66699 7.33301 14.667 12 24 14zM146.002 739l21.001 -1.00098l9 -3c9.33301 -4.66699 16.333 -12 21 -22c3.33301 -6.66699 5 -20.667 5 -42c0 2.66699 0 -2.66602 0 -15.999c0.666992 -33.333 -0.333008 -53.333 -3 -60
c-4.66699 -13.333 -13.667 -22.666 -27 -27.999c-5.33301 -2 -11.333 -3 -18 -3c-7.33301 0 -14 1.33301 -20 4c-14.667 7.33301 -23.667 19 -27 35v97c2 9.33301 6.66699 17.666 14 24.999s15.666 12 24.999 14z" />
    <glyph glyph-name="Aring" unicode="&#xc5;" 
d="M238 739l106.999 0.999023l103 -1l6 -1c16.667 -4 30.667 -10.667 42 -20c17.333 -14 28.666 -32.667 33.999 -56c0.666992 -4 1 -21 1 -51c0 -29.333 -0.333008 -46 -1 -50c-5.33301 -23.333 -16.666 -42 -33.999 -56c-11.333 -9.33301 -24 -15.666 -38 -18.999l-5 -1
l61 -211c41.333 -140 62.333 -211.667 63 -215l1 -20c0 -0.666992 -0.333008 -1.66699 -1 -3c-5.33301 -19.333 -17.666 -31 -36.999 -35c-4 -0.666992 -8 -1 -12 -1c-20.667 1.33301 -34.667 11.666 -42 30.999c-0.666992 2.66699 -7.33398 25 -20.001 67l-18 63h-106h-105
l-19 -64c-12 -42.667 -18.667 -65 -20 -67c-3.33301 -9.33301 -9.33301 -16.666 -18 -21.999c-18 -12 -35.667 -11.667 -53 1c-10 6.66699 -16.333 16 -19 28l-1 20l1 2c0.666992 3.33301 21.334 75 62.001 215l62 211l-5 1c-14 3.33301 -26.333 9.33301 -37 18
c-18 14.667 -29.667 33.667 -35 57c-0.666992 4 -1 20.667 -1 50c0 30 0.333008 47 1 51c5.33301 23.333 17 42.333 35 57c13.333 11.333 29.333 18 48 20zM435.999 610.999v33h-94h-93v-33v-32h93h94v32zM353.999 481.999c0 0.666992 -4 1 -12 1
c-7.33301 0 -11 -0.333008 -11 -1c0 -1.33301 -11 -39 -33 -113l-33 -112h39h77h39l-33 112c-22 74 -33 111.667 -33 113z" />
    <glyph glyph-name="AE" unicode="&#xc6;" 
d="M381 739l157.995 0.000976562c20.667 -4 33.334 -16 38.001 -36c0.666992 -3.33301 1 -7 1 -11c0 -20.667 -9.33301 -35.334 -28 -44.001c-3.33301 -1.33301 -7 -2.33301 -11 -3c-2.66699 -0.666992 -20.334 -1 -53.001 -1h-49v-113v-113h49
c32.667 0 50.334 -0.333008 53.001 -1c20.667 -4 33.334 -15.667 38.001 -35c0.666992 -4 1 -8 1 -12c0 -20.667 -9.33301 -35 -28 -43c-3.33301 -2 -7 -3.33301 -11 -4c-2.66699 -0.666992 -20.334 -1 -53.001 -1h-49v-113v-113h49c32.667 0 50.334 -0.333008 53.001 -1
c20.667 -4 33.334 -16 38.001 -36c0.666992 -3.33301 1 -7 1 -11c0 -21.333 -9.66699 -36 -29 -44c-3.33301 -1.33301 -6.66602 -2.33301 -9.99902 -3h-158c-9.33301 2 -17.666 6.33301 -24.999 13c-5.33301 6 -9 11.667 -11 17c-2 6 -3 29.667 -3 71v59h-48
c-31.333 0 -47.333 -0.333008 -48 -1c0 -0.666992 -8 -22.667 -24 -66s-24.333 -66 -25 -68c-2.66699 -4.66699 -6 -9 -10 -13c-16.667 -16 -35.334 -18.333 -56.001 -7c-12 6.66699 -19.667 17 -23 31l-1 20l1 2l240 657c4.66699 7.33301 10.334 13 17.001 17
c4.66699 2.66699 10 4.66699 16 6zM340.995 257.001v82v81l-30 -81l-29 -82h29h30z" />
    <glyph glyph-name="Ntilde" unicode="&#xd1;" 
d="M148 498l18.998 -1c6 -2 11.333 -4.66699 16 -8c2.66699 -2 53.334 -55.667 152.001 -161l148 -159v145c0 98.667 1.66699 151 5 157c6.66699 12.667 16.667 21.334 30 26.001h22h3c6.66699 -2 12.667 -5.33301 18 -10c8 -6 13.667 -14.333 17 -25
c0.666992 -2.66699 1 -73.667 1 -213s-0.333008 -210.333 -1 -213c-1.33301 -2.66699 -2.66602 -5.66699 -3.99902 -9c-4.66699 -10 -12 -17.333 -22 -22c-8.66699 -4 -17.667 -5.66699 -27 -5c-3.33301 0.666992 -6.66602 1.66699 -9.99902 3c-6 2 -11.667 5.66699 -17 11
c-4 3.33301 -54 56.666 -150 159.999l-145 155l-1 -145c0 -98.667 -1.66699 -151 -5 -157c-4.66699 -10 -11.667 -17.333 -21 -22c-6 -2.66699 -12 -4.33398 -18 -5.00098l-19 3l-9 4c-6.66699 4 -12.334 9.66699 -17.001 17c-2.66699 4.66699 -4.66699 10.334 -6 17.001
v211c0 138 0.333008 208 1 210c2 7.33301 5 13.666 9 18.999c8 8.66699 18.333 14.334 31 17.001zM145.998 739c2.66699 0.666992 5.00098 0.999023 7.00098 0.999023l167 -18l165 -17l1 4c2 5.33301 6 10.666 12 15.999c5.33301 6 11 10 17 12
c8 2.66699 16 3.33398 24 2.00098c4.66699 -0.666992 9 -2 13 -4c10 -4.66699 17.333 -12 22 -22c2.66699 -6.66699 4.33398 -19.334 5.00098 -38.001l-2 -35c0 -1.33301 -0.333008 -3 -1 -5c-2 -5.33301 -5.66699 -10.666 -11 -15.999c-8 -8.66699 -17.667 -13.667 -29 -15
l-170 17l-164 17c-1.33301 0 -2.33301 -1 -3 -3c-2 -5.33301 -5.33301 -10.666 -10 -15.999c-8 -8.66699 -17.667 -13.667 -29 -15c-6.66699 -0.666992 -13.334 0 -20.001 2c-4 1.33301 -7.66699 3 -11 5c-6.66699 4 -12 9.33301 -16 16
c-1.33301 2.66699 -2.33301 5.33398 -3 8.00098c-2 6 -3 18.333 -3 37s1 31 3 37c2 5.33301 5.66699 10.666 11 15.999c7.33301 7.33301 15.666 12 24.999 14z" />
    <glyph glyph-name="Oslash" unicode="&#xd8;" 
d="M328 739c14 2 29 0.999023 45 -3.00098c8.66699 -2.66699 16.667 -5.66699 24 -9c24.667 -12 43.667 -31 57 -57l4 -7c0.666992 0.666992 6 9.66699 16 27c12 20 19.333 31.667 22 35c8.66699 8.66699 19.334 13.667 32.001 15c12.667 0.666992 24 -3.33301 34 -12
l10 -13c0.666992 -0.666992 1.33398 -1.66699 2.00098 -3c4 -8 5.33301 -16.667 4 -26c-0.666992 -5.33301 -2 -10 -4 -14c-1.33301 -2.66699 -12.333 -22 -33 -58l-32 -54l26 -52c17.333 -34.667 27.333 -55 30 -61c12 -33.333 16.333 -67 13 -101
c-2 -12.667 -4.66699 -25 -8 -37s-24.333 -56.667 -63 -134c-36 -72 -55.333 -110 -58 -114c-4.66699 -8 -10.334 -15.667 -17.001 -23c-30.667 -31.333 -67.334 -43.333 -110.001 -36c-12 2 -23.333 5.66699 -34 11c-24.667 12 -43.667 31 -57 57l-4 7
c-0.666992 -0.666992 -6 -9.66699 -16 -27c-12.667 -21.333 -20.667 -33.666 -24 -36.999c-16.667 -16 -35.334 -18.333 -56.001 -7c-12 6.66699 -19.667 17 -23 31c-2 6 -2.33301 12.667 -1 20c0.666992 4 2 7.66699 4 11c0.666992 2 11.667 21 33 57l32 55l-19 37l-25 50
l-9 20c-7.33301 18 -12.333 37.333 -15 58v47v3c2.66699 20 7.33398 38.667 14.001 56l115 230c16 26 38.333 43.333 67 52c7.33301 2.66699 15.333 4.66699 24 6zM349 642.999c-6.66699 1.33301 -12.668 0.666992 -18.001 -2c-3.33301 -1.33301 -6.33301 -3.33301 -9 -6
c-2.66699 -2 -21.334 -38.333 -56.001 -109c-35.333 -70.667 -53.666 -108 -54.999 -112c-3.33301 -7.33301 -5.66602 -15.666 -6.99902 -24.999v-37v-1c1.33301 -8.66699 3.33301 -16.334 6 -23.001l24 -49l166 284l-17 35c-11.333 22.667 -18 35 -20 37
c-4 4 -8.66699 6.66699 -14 8zM462.999 439l-11 22.001l-167 -285c0 -0.666992 5.66699 -12 17 -34c11.333 -22.667 18 -35.334 20 -38.001c4 -4 8.66699 -6.33301 14 -7c6 -2 12 -1.66699 18 1c3.33301 1.33301 6.33301 3.33301 9 6c2 2.66699 13 24 33 64l54 108
c16 31.333 25 49.666 27 54.999c4.66699 14.667 6.66699 29.334 6 44.001v4c-1.33301 16 -8 36 -20 60z" />
    <glyph glyph-name="odieresis" unicode="&#xf6;" 
d="M317 578l50.001 -0.00195312c32 -4 58 -18.667 78 -44c2.66699 -3.33301 11 -14.666 25 -33.999l55 -78l37 -53c8.66699 -13.333 14 -27.666 16 -42.999l1 -40c-0.666992 -22 -1.33398 -35.333 -2.00098 -40c-2.66699 -12.667 -7.33398 -24 -14.001 -34
c-1.33301 -2 -16.666 -23.667 -45.999 -65l-56 -80c-8 -11.333 -13.333 -18.666 -16 -21.999c-20 -25.333 -46 -40 -78 -44h-49c-32 4 -58 18.667 -78 44l-118 168c-6 9.33301 -10.333 20.333 -13 33c-1.33301 4.66699 -2 18 -2 40l1 40c1.33301 13.333 5 25.333 11 36
c2.66699 3.33301 31.334 44.333 86.001 123c23.333 33.333 37.333 52.666 42 57.999c19.333 19.333 42.666 31 69.999 35zM362.001 480.998l-3.99805 2h-14h-17c-4 -1.33301 -7.66699 -3.33301 -11 -6l-19 -28l-56 -79l-38 -55v-25l-1 -26l38 -54l56 -80
c12 -16.667 18.667 -25.667 20 -27c2 -2 4.33301 -3.66699 7 -5l4 -2h15h16l4 2c2.66699 1.33301 5 3 7 5c1.33301 1.33301 12.666 17 33.999 47l56 80l24 34v25c0 16.667 -0.333008 25.667 -1 27s-8.33398 12.333 -23.001 33l-55 78c-21.333 30.667 -33 47 -35 49
s-4.33301 3.66699 -7 5zM522.003 738.998l21.001 -1.00098c2.66699 -0.666992 5.66699 -1.66699 9 -3c10 -4.66699 17.333 -12 22 -22c3.33301 -6.66699 5 -20.667 5 -42c0 2.66699 0 -2.66602 0 -15.999c0 -33.333 -1 -53.333 -3 -60
c-4.66699 -13.333 -13.667 -22.666 -27 -27.999c-5.33301 -2 -11.333 -3 -18 -3c-8 0 -15 1.33301 -21 4c-14.667 7.33301 -23.334 19 -26.001 35v97c2 9.33301 6.66699 17.666 14 24.999c6.66699 7.33301 14.667 12 24 14zM146.004 738.997l21.001 -1.00098l9 -3
c9.33301 -4.66699 16.333 -12 21 -22c3.33301 -6.66699 5 -20.667 5 -42c0 2.66699 0 -2.66602 0 -15.999c0.666992 -33.333 -0.333008 -53.333 -3 -60c-4.66699 -13.333 -13.667 -22.666 -27 -27.999c-5.33301 -2 -11.333 -3 -18 -3c-7.33301 0 -14 1.33301 -20 4
c-14.667 7.33301 -23.667 19 -27 35v97c2 9.33301 6.66699 17.666 14 24.999s15.666 12 24.999 14z" />
    <glyph glyph-name="udieresis" unicode="&#xfc;" 
d="M147 578l14.999 -0.00195312c10 -1.33301 18.333 -5.66602 25 -12.999c6.66699 -6 11.334 -13.667 14.001 -23c0.666992 -2 1 -70.333 1 -205c0.666992 -134.667 1.33398 -203 2.00098 -205c4 -14.667 12.667 -25 26 -31c6 -3.33301 21.333 -5 46 -5h67
c69.333 0 107 1.66699 113 5c12.667 6 21.334 16.333 26.001 31c0.666992 2 1 70.333 1 205s0.333008 203 1 205c4.66699 14.667 13 25 25 31c12.667 6.66699 25.667 7.66699 39 3c6.66699 -2.66699 12.667 -7 18 -13c4.66699 -4.66699 8 -9.66699 10 -15
c2 -6 3 -53.667 3 -143c0 20.667 0 -2.66602 0 -69.999c0 -132.667 -0.333008 -202.334 -1 -209.001c-2 -16 -6.66699 -31.333 -14 -46c-20.667 -41.333 -53.667 -67 -99 -77l-12 -2c-6.66699 -0.666992 -43.334 -1 -110.001 -1c-67.333 0 -103.333 0.333008 -108 1
c-47.333 5.33301 -83.333 28.333 -108 69c-10.667 18 -17 37.333 -19 58l-1 411c3.33301 16 11.666 27.333 24.999 34c5.33301 2.66699 10.333 4.33398 15 5.00098zM427.999 738.998l20.001 -1.00098c2.66699 -0.666992 6 -1.66699 10 -3
c9.33301 -4.66699 16.333 -12 21 -22c3.33301 -6.66699 5 -20.667 5 -42c0 2.66699 0 -2.66602 0 -15.999c0 -33.333 -1 -53.333 -3 -60c-4.66699 -13.333 -13.667 -22.666 -27 -27.999c-5.33301 -2 -11.333 -3 -18 -3c-7.33301 0 -14.333 1.33301 -21 4
c-14 7.33301 -22.667 19 -26 35v97c2 9.33301 6.66699 17.666 14 24.999s15.666 12 24.999 14zM240 738.997l21.001 -1.00098l9 -3c9.33301 -4.66699 16.333 -12 21 -22c3.33301 -6.66699 5 -20.667 5 -42c0 2.66699 0 -2.66602 0 -15.999
c0.666992 -33.333 -0.333008 -53.333 -3 -60c-4.66699 -13.333 -13.667 -22.666 -27 -27.999c-5.33301 -2 -11.333 -3 -18 -3c-7.33301 0 -14 1.33301 -20 4c-14.667 7.33301 -23.667 19 -27 35v97c2 9.33301 6.66699 17.666 14 24.999s15.666 12 24.999 14z" />
    <glyph glyph-name="uni2440" unicode="&#x2440;" 
d="M295 418v321.999h142h142v-147c0 -100.667 -1 -153.667 -3 -159c-2 -6 -5.33301 -11.333 -10 -16c-8 -8.66699 -18 -13.667 -30 -15l-18 1c-0.666992 0.666992 -1.66699 1 -3 1c-6 2.66699 -11.667 6.66699 -17 12c-6 5.33301 -10 11 -12 17c-2 5.33301 -3 42.333 -3 111
v99h-46h-46v-288v-322l-1 -34h-142h-141v147c0 100.667 1 153.667 3 159c2 6 5.66699 11.667 11 17s11.333 9 18 11c6 2.66699 13 3.66699 21 3c11.333 -1.33301 21 -6.33301 29 -15c4.66699 -5.33301 8 -10.666 10 -15.999c2 -6 3 -43 3 -111v-99h47h46v322z" />
    <glyph glyph-name="uni2441" unicode="&#x2441;" 
d="M522 739l20.998 -0.999023c6.66699 -1.33301 12.667 -4.33301 18 -9c8 -6.66699 13.667 -15 17 -25c0.666992 -2.66699 1 -114 1 -334s-0.333008 -331.333 -1 -334c-1.33301 -2.66699 -2.66602 -5.66699 -3.99902 -9c-4.66699 -10 -12 -17.333 -22 -22
c-8.66699 -4 -17.667 -5.66699 -27 -5c-3.33301 0.666992 -6.66602 1.66699 -9.99902 3c-6 2 -11.667 5.66699 -17 11c-6 6 -10 11.667 -12 17c-2 6 -3 47.667 -3 125v27v139h-140h-141v-141c0 -96.667 -1.66699 -148 -5 -154c-4.66699 -10 -11.667 -17.333 -21 -22
c-9.33301 -4 -18.333 -5.66699 -27 -5c-3.33301 0.666992 -7 1.66699 -11 3c-6 2 -11.667 5.66699 -17 11c-5.33301 6 -9 11.667 -11 17c-2 6 -3 52 -3 138c0 -28.667 0 -8 0 62v187h188h188v139c0 95.333 1 146 3 152c2 5.33301 6 10.666 12 15.999
c6.66699 7.33301 14.667 12 24 14z" />
    <glyph glyph-name="uni2442" unicode="&#x2442;" 
d="M146 739l21.001 -1l9 -3c9.33301 -4.66699 16.333 -12 21 -22c3.33301 -6 5 -19.667 5 -41v-113v-141h141h140v139c0 95.333 1 146 3 152c2 5.33301 6 10.666 12 15.999c5.33301 6 11 10 17 12c8 2.66699 16 3.33398 24 2.00098c4.66699 -0.666992 9 -2 13 -4
c6.66699 -3.33301 12 -7.66602 16 -12.999s7.33301 -11.333 10 -18c0.666992 -2.66699 1 -67 1 -193v-189h-94h-95v-141c0 -96.667 -1.66699 -148 -5 -154c-4.66699 -10 -11.667 -17.333 -21 -22c-9.33301 -4 -18.333 -5.66699 -27 -5c-3.33301 0.666992 -7 1.66699 -11 3
c-6 2 -11.667 5.66699 -17 11c-5.33301 6 -9 11.667 -11 17c-2 6 -3 47.667 -3 125v27v139h-94h-94v187c0 127.333 1 194 3 200c2 5.33301 5.66699 10.666 11 15.999c7.33301 7.33301 15.666 12 24.999 14z" />
    <glyph glyph-name="glyph1" 
 />
    <glyph glyph-name="glyph2" 
 />
  </font>
</defs>
</svg>
